<svg xmlns="http://www.w3.org/2000/svg" xml:space="preserve" width="800" height="800" viewBox="0 0 297.001 297.001"><path d="M291.641 148.041c-4.521-1.968-9.773.083-11.74 4.604-.337.753-6.237 13.531-20.072 20.777a119.47 119.47 0 0 0 9.955-16.794c12.172-25.057 11.727-46.259 11.702-47.15-.138-4.929-4.239-8.84-9.175-8.675a8.928 8.928 0 0 0-8.675 9.175c.015.52.516 38.164-32.664 69.396-13.195-15.72-11.573-37.525-11.547-37.848a8.93 8.93 0 0 0-8.081-9.675 8.922 8.922 0 0 0-9.705 8.079c-.112 1.229-2.413 29.147 15.431 50.646-8.539 5.888-18.653 11.284-30.609 15.834-1.215-16.721-5.344-35.084-14.398-54.012a662.752 662.752 0 0 1-10.105-22.151c32.06-14.186 46.109-38.733 52.246-57.58.034-.106.065-.211.099-.316 29.84-.5 47.222-24.197 51.291-37.559 1.436-4.717-1.216-9.728-5.933-11.164-4.722-1.442-9.7 1.201-11.136 5.917-.323 1.022-7.538 22.944-30.065 24.828 1.926-13.133 1.008-22.549.951-23.102-.507-4.896-4.87-8.439-9.776-7.952-4.897.494-8.469 4.87-7.989 9.768.016.162 1.506 16.289-4.622 34.653a81.043 81.043 0 0 1-6.816 15.135c-10.606-7.832-16.157-28.717-17.377-36.54-.754-4.869-5.3-8.211-10.177-7.462a8.93 8.93 0 0 0-7.473 10.179c.616 4.017 5.822 34.353 24.206 48.076-6.685 6.83-14.802 12.382-24.317 16.63-23.739-59.176-28.666-97.687-28.722-98.147a8.93 8.93 0 0 0-17.73 2.138c.285 2.367 7.422 58.925 47.333 142.357 12.019 25.125 15.732 52.197 11.034 80.467-.085.511-.172 1.017-.261 1.519-.226-.701-.459-1.409-.7-2.122-7.101-20.94-23.11-51.051-59.05-75.584a127.576 127.576 0 0 1-8.106-6.039c10.448-9.226 15.913-22.759 15.913-39.688 0-14.658-4.196-26.863-4.374-27.375a8.93 8.93 0 0 0-16.862 5.878c.123.354 11.438 33.689-7.867 48.899-13.792-14.897-23.95-33.247-30.312-54.838-7.049-23.919-6.538-43.037-6.532-43.212a8.927 8.927 0 0 0-8.613-9.233c-4.935-.191-9.063 3.685-9.233 8.613-.03.874-.654 21.692 7.064 48.246 10.276 35.358 30.629 64.232 58.856 83.5.143.098.278.2.421.298-6.99-.179-15.362-.968-24.096-3.076-29.113-7.029-47.852-25.025-55.694-53.491a8.929 8.929 0 1 0-17.216 4.743c9.561 34.702 33.323 57.561 68.719 66.105 11.713 2.828 22.818 3.618 31.57 3.618 8.469 0 14.722-.738 17.203-1.087 9.343 9.195 17.023 19.36 23 30.435-13 3.176-50.148 9.248-79.657-15.266a8.928 8.928 0 0 0-12.573 1.163c-3.151 3.792-2.63 9.421 1.163 12.573 21.566 17.917 45.798 22.588 65.207 22.588 15.325 0 27.638-2.912 33.261-4.517.208.573.434 1.136.634 1.713 6.864 19.807 6.214 34.756 6.207 34.875a8.93 8.93 0 0 0 16.804 4.685c.316-.596 2.263-4.354 4.654-10.624 51.675-1.83 85.089-32.129 86.596-33.522 3.615-3.341 3.837-8.971.505-12.594-3.331-3.622-8.975-3.859-12.608-.535-.305.279-27.389 24.598-68.812 28.375a161.319 161.319 0 0 0 4.464-30.267c22.448-7.672 39.474-18.024 52.378-29.129l.235.001c40.681 0 56.332-34.892 56.982-36.385 1.969-4.526-.093-9.808-4.614-11.775z" style="fill:#a91523"/><path d="M291.641 148.041c-4.521-1.968-9.773.083-11.74 4.604-.337.753-6.237 13.531-20.072 20.777a119.47 119.47 0 0 0 9.955-16.794c12.172-25.057 11.727-46.259 11.702-47.15-.138-4.929-4.239-8.84-9.175-8.675a8.928 8.928 0 0 0-8.675 9.175c.015.52.516 38.164-32.664 69.396-13.195-15.72-11.573-37.525-11.547-37.848a8.93 8.93 0 0 0-8.081-9.675 8.922 8.922 0 0 0-9.705 8.079c-.112 1.229-2.413 29.147 15.431 50.646-8.539 5.888-18.653 11.284-30.609 15.834-1.215-16.721-5.344-35.084-14.398-54.012a662.752 662.752 0 0 1-10.105-22.151c32.06-14.186 46.109-38.733 52.246-57.58.034-.106.065-.211.099-.316 29.84-.5 47.222-24.197 51.291-37.559 1.436-4.717-1.216-9.728-5.933-11.164-4.722-1.442-9.7 1.201-11.136 5.917-.323 1.022-7.538 22.944-30.065 24.828 1.926-13.133 1.008-22.549.951-23.102-.507-4.896-4.87-8.439-9.776-7.952-4.897.494-8.469 4.87-7.989 9.768.016.162 1.506 16.289-4.622 34.653a81.043 81.043 0 0 1-6.816 15.135c-10.606-7.832-16.157-28.717-17.377-36.54-.754-4.869-5.3-8.211-10.177-7.462a8.93 8.93 0 0 0-7.473 10.179c.616 4.017 5.822 34.353 24.206 48.076-6.685 6.83-14.802 12.382-24.317 16.63a604.944 604.944 0 0 1-7.824-20.568v48.003a697.92 697.92 0 0 0 8.706 18.913c12.019 25.125 15.732 52.197 11.034 80.467-.085.511-.172 1.017-.261 1.519-.226-.701-.459-1.409-.7-2.122-3.559-10.495-9.357-23.293-18.779-36.539v40.062c.339-.093.669-.184.97-.27.208.573.434 1.136.634 1.713 6.864 19.807 6.214 34.756 6.207 34.875a8.93 8.93 0 0 0 16.804 4.685c.316-.596 2.263-4.354 4.654-10.624 51.675-1.83 85.089-32.129 86.596-33.522 3.615-3.341 3.837-8.971.505-12.594-3.331-3.622-8.975-3.859-12.608-.535-.305.279-27.389 24.598-68.812 28.375a161.319 161.319 0 0 0 4.464-30.267c22.448-7.672 39.474-18.024 52.378-29.129l.235.001c40.681 0 56.332-34.892 56.982-36.385 1.969-4.526-.093-9.808-4.614-11.775z" style="fill:#8e1325"/></svg>