<svg xmlns="http://www.w3.org/2000/svg" xml:space="preserve" viewBox="0 0 297 297"><path fill="#a91523" d="M292 148c-5-2-10 0-12 5 0 0-6 13-20 20a119 119 0 0 0 21-64 9 9 0 1 0-17 1s0 38-33 69a58 58 0 0 1-12-37 9 9 0 0 0-17-2c0 1-3 29 15 51-8 5-19 11-31 15-1-16-5-35-14-54l-10-22c32-14 46-38 52-57v-1c30 0 48-24 52-37a9 9 0 0 0-17-5c-1 1-8 22-31 24 2-13 1-22 1-23a9 9 0 0 0-17 2 93 93 0 0 1-12 50c-10-8-16-29-17-37a9 9 0 0 0-18 3c1 4 6 34 24 48-6 7-14 13-24 17-24-59-29-98-29-98a9 9 0 0 0-17 2c0 2 7 59 47 142a133 133 0 0 1 11 82l-1-2c-7-21-23-51-59-76l-8-6c10-9 16-22 16-39 0-15-4-27-5-28a9 9 0 0 0-16 6c0 1 11 34-8 49-14-15-24-33-31-55-7-24-6-43-6-43a9 9 0 1 0-18-1c0 1-1 22 7 49 10 35 31 64 59 83l-24-3c-29-7-48-25-55-53a9 9 0 0 0-18 5c10 34 34 57 69 66a136 136 0 0 0 49 2c9 9 17 20 23 31-13 3-50 9-80-16a9 9 0 0 0-11 14c21 18 46 23 65 23 15 0 28-3 33-5l1 2c7 20 6 35 6 35a9 9 0 0 0 17 4l5-10c51-2 85-32 86-34a9 9 0 0 0-12-13c0 1-27 25-69 29l5-31c22-7 39-18 52-29 41 0 57-35 57-36 2-5 0-10-4-12z"/><path fill="#8e1325" d="M292 148c-5-2-10 0-12 5 0 0-6 13-20 20a119 119 0 0 0 21-64 9 9 0 1 0-17 1s0 38-33 69a58 58 0 0 1-12-37 9 9 0 0 0-17-2c0 1-3 29 15 51-8 5-19 11-31 15-1-16-5-35-14-54l-10-22c32-14 46-38 52-57v-1c30 0 48-24 52-37a9 9 0 0 0-17-5c-1 1-8 22-31 24 2-13 1-22 1-23a9 9 0 0 0-17 2 93 93 0 0 1-12 50c-10-8-16-29-17-37a9 9 0 0 0-18 3c1 4 6 34 24 48-6 7-14 13-24 17l-8-21v48l9 19a133 133 0 0 1 11 82 159 159 0 0 0-20-39v40h1l1 2c7 20 6 35 6 35a9 9 0 0 0 17 4l5-10c51-2 85-32 86-34a9 9 0 0 0-12-13c0 1-27 25-69 29l5-31c22-7 39-18 52-29 41 0 57-35 57-36 2-5 0-10-4-12z"/></svg>