<svg version="1.1" id="Layer_1" xmlns="http://www.w3.org/2000/svg" xmlns:xlink="http://www.w3.org/1999/xlink" x="0px" y="0px"
	 width="100%" viewBox="0 0 1313 1078" enable-background="new 0 0 1313 1078" xml:space="preserve">
<path fill="transparent" opacity="1.000000" stroke="none" 
	d="
M1.000000,972.000000 
	C1.000000,668.637329 1.000000,365.274597 1.459705,61.455921 
	C439.279602,60.999958 876.639832,60.999981 1314.000000,61.000000 
	C1314.000000,347.362701 1314.000000,633.725403 1313.651733,920.352844 
	C1310.942017,921.799377 1308.556152,922.935059 1306.223389,924.171082 
	C1297.150879,928.978149 1292.705200,927.909668 1287.042603,919.391357 
	C1280.174927,920.069031 1273.236084,920.870056 1266.275757,921.377441 
	C1263.838257,921.555054 1260.506958,921.944885 1259.037964,920.622437 
	C1254.414795,916.460571 1249.642700,918.426453 1244.874878,919.225708 
	C1239.790771,920.078003 1234.708252,921.059814 1229.724854,922.366028 
	C1219.187988,925.127808 1208.515869,924.607361 1198.384277,921.740845 
	C1184.653442,917.855774 1171.213257,912.801697 1157.917603,907.565491 
	C1147.973755,903.649292 1138.220581,899.443848 1127.415283,898.607788 
	C1122.343872,898.215393 1117.630371,897.334106 1114.292114,892.696655 
	C1113.298096,891.315918 1110.778687,891.028564 1108.952759,890.253113 
	C1107.285889,889.545105 1105.530762,889.001099 1103.953979,888.131897 
	C1095.283081,883.352173 1087.026978,877.685120 1076.825317,876.381775 
	C1072.615112,875.843933 1068.934082,873.430969 1069.335449,869.110779 
	C1069.850464,863.567993 1066.694336,862.243469 1062.784912,860.802307 
	C1060.760864,860.056091 1058.819092,859.073608 1056.873413,858.129395 
	C1033.024048,846.555603 1010.152039,833.428406 988.563049,817.902893 
	C979.926392,811.691833 969.736267,807.423157 959.850586,803.216797 
	C944.252686,796.579834 928.083130,791.260681 912.616028,784.352539 
	C904.504944,780.729919 897.310608,775.008911 889.825806,770.049133 
	C886.075684,767.564209 884.235413,764.206726 883.904480,759.277100 
	C882.605469,739.925354 863.014038,723.723511 844.136963,725.578369 
	C841.514038,710.950806 839.048889,696.685791 836.528748,682.430420 
	C833.717346,666.527283 830.140808,650.720947 828.174500,634.715515 
	C824.744690,606.797668 821.896118,578.792725 819.560303,550.761292 
	C817.778015,529.372192 816.829163,507.896118 816.163940,486.438477 
	C815.793274,474.481689 817.162170,462.475739 816.931885,450.507629 
	C816.836487,445.550568 814.607788,440.634766 813.350647,435.699829 
	C812.954468,434.144623 811.895203,432.396912 812.277344,431.063416 
	C814.784119,422.316650 819.862061,414.731598 827.110840,409.756744 
	C851.991211,392.681488 866.926270,369.606140 871.618774,339.885254 
	C871.966248,337.684387 871.445496,335.231049 870.860840,333.018585 
	C868.462952,323.944092 871.278320,315.684113 876.734497,309.115021 
	C881.300110,303.618134 888.137878,300.046539 893.770508,295.382050 
	C896.682861,292.970215 899.592896,290.335419 901.730408,287.263123 
	C904.480408,283.310425 902.901367,280.611359 898.195618,281.177704 
	C894.669861,281.602081 891.052368,282.802765 887.905640,284.469482 
	C883.439270,286.835175 879.368042,289.946655 875.127930,292.739410 
	C874.632263,292.544006 874.136536,292.348633 873.640869,292.153229 
	C874.867126,284.882904 875.799011,277.547089 877.398560,270.359863 
	C879.166443,262.416107 881.970032,254.685577 883.421143,246.698380 
	C883.906799,244.025070 882.441772,239.914032 880.405762,238.121902 
	C877.412476,235.487091 874.226624,238.111404 871.783752,240.576035 
	C871.087280,241.278748 870.370361,242.065231 869.981201,242.952866 
	C864.639038,255.137680 858.822876,267.111359 857.744934,280.753021 
	C856.644592,294.677368 855.447998,308.611298 850.875427,322.017090 
	C848.274292,329.643311 844.635071,336.324341 837.925598,341.076019 
	C836.441162,342.127319 835.146912,343.462433 833.832947,344.736786 
	C825.822754,352.505524 818.495361,360.613922 812.729858,370.463776 
	C805.947144,382.051605 797.242859,392.513641 789.389282,403.476318 
	C786.143799,408.006592 782.943420,412.569183 779.343628,417.652130 
	C778.495911,411.518921 776.893494,405.877472 771.186829,403.895935 
	C765.982910,402.088928 760.255920,401.788147 754.435364,400.766632 
	C754.030212,395.320190 753.711243,390.395142 758.481262,385.233002 
	C766.919983,376.100494 774.351257,365.946594 781.463745,355.705902 
	C787.965698,346.344238 792.165649,335.929047 793.486755,324.299103 
	C794.624695,314.281555 797.177246,304.432220 798.696167,294.446411 
	C799.230896,290.930603 799.260010,287.022491 798.267944,283.663208 
	C796.753235,278.533936 792.737976,277.855499 789.291992,281.929932 
	C787.296265,284.289673 785.615784,287.174744 784.659119,290.105957 
	C781.820129,298.804504 778.737244,307.510010 776.967773,316.453796 
	C772.793640,337.552002 759.301514,352.905853 747.044495,368.440826 
	C742.220398,366.100372 738.016541,364.060791 734.577209,362.392151 
	C739.482544,352.030487 744.389099,341.350128 749.568115,330.803589 
	C756.530151,316.626099 759.599121,301.571136 760.173218,285.917908 
	C760.588196,274.603210 759.834839,263.127747 761.482605,252.002487 
	C764.300232,232.979721 765.033936,213.439209 773.159119,195.452576 
	C774.700195,192.041183 774.457520,188.373230 771.045776,184.317795 
	C768.038940,186.809006 764.327087,188.631256 762.535034,191.608917 
	C757.576294,199.848434 752.501526,208.225525 749.140198,217.174606 
	C742.683716,234.363434 741.440552,252.476501 741.647644,270.788452 
	C741.871948,290.615326 739.306396,310.011414 729.839966,327.936676 
	C727.510376,332.347900 726.007385,337.222076 723.447449,341.476044 
	C721.664307,344.439178 718.919189,346.931763 716.252441,349.226196 
	C713.189636,351.861359 709.462097,353.749298 706.521973,356.495636 
	C702.114624,360.612427 698.141907,365.194458 693.365784,370.230865 
	C692.872620,367.638184 692.383057,366.340302 692.418640,365.056976 
	C692.829163,350.260986 692.436768,335.371399 694.029602,320.699066 
	C695.714600,305.179688 698.897766,289.778870 702.193115,274.491547 
	C705.130127,260.867004 709.516907,247.554550 712.440125,233.927673 
	C713.627502,228.392654 712.636108,222.390274 712.636108,216.600555 
	C712.181519,216.474640 711.726929,216.348740 711.272339,216.222824 
	C707.395874,221.097275 702.889648,225.600143 699.755005,230.912323 
	C687.931824,250.949005 681.485168,272.834412 677.393494,295.692719 
	C672.602234,322.458984 670.531738,349.237579 673.887207,376.244080 
	C675.076294,385.815155 673.676880,393.931061 665.977295,400.340759 
	C664.587158,401.497986 663.545959,403.075317 662.348328,404.462677 
	C658.639954,408.758484 656.511353,409.284546 653.089172,405.015045 
	C647.187073,397.651550 642.198730,389.562653 636.451538,382.065918 
	C631.475098,375.574615 631.675415,369.085602 634.511719,361.859528 
	C637.183167,355.053223 639.570190,348.067383 641.244263,340.963013 
	C642.239319,336.740295 641.573486,332.134583 641.736511,327.704102 
	C641.822266,325.372375 641.570740,322.853455 642.362000,320.754822 
	C644.881714,314.071411 648.147644,307.661835 650.531006,300.935913 
	C656.695984,283.537994 662.165710,265.885925 668.643921,248.609390 
	C673.272949,236.264145 672.873718,223.817017 671.663147,211.179916 
	C671.564880,210.154495 670.247559,209.245819 669.496643,208.282913 
	C668.677673,209.023804 667.553711,209.612381 667.093994,210.532730 
	C665.386414,213.951340 663.843262,217.455933 662.335693,220.970001 
	C656.247742,235.160675 648.212341,248.585007 645.584412,264.145874 
	C645.182373,266.526245 643.725342,268.740692 642.683899,270.998535 
	C639.420898,278.072784 636.020203,285.085724 632.884094,292.215363 
	C631.393494,295.604095 630.381592,299.203369 629.152832,302.707275 
	C628.230103,291.779022 628.569946,281.140747 628.101074,270.538239 
	C627.825623,264.311371 627.044434,257.864716 624.983459,252.051300 
	C623.776611,248.647141 619.606506,246.293518 616.769409,243.467316 
	C614.825806,246.791031 611.685242,249.939636 611.168457,253.472122 
	C609.751709,263.155487 609.262939,272.990692 608.731934,282.783447 
	C608.065002,295.083923 607.787476,307.405304 607.158691,319.708344 
	C607.074341,321.359070 606.150574,323.104218 605.216187,324.547058 
	C602.902222,328.120239 600.219788,331.456390 597.936035,335.047180 
	C594.353210,340.680664 590.976746,346.445435 587.101074,352.833282 
	C587.101074,347.265350 587.260254,342.955231 587.071533,338.660370 
	C586.479492,325.185883 586.308167,311.660431 584.930298,298.262024 
	C583.526245,284.608673 581.948975,270.624939 569.241516,261.616089 
	C565.560608,271.062622 565.334473,280.756165 566.766541,290.776825 
	C567.582825,296.488251 567.065186,302.396851 567.064087,308.216675 
	C567.062927,314.210297 566.921936,320.203827 566.908936,326.197571 
	C566.882446,338.363892 566.901001,350.530304 566.901001,362.696686 
	C566.478699,362.812561 566.056335,362.928436 565.634033,363.044312 
	C561.425354,355.349579 557.350952,347.576752 552.945007,339.996704 
	C551.057251,336.749115 548.935181,333.319794 546.060364,331.072144 
	C544.035767,329.489258 540.035706,328.581085 537.886230,329.540802 
	C535.815002,330.465546 533.562866,334.371185 533.873474,336.624939 
	C534.903381,344.097900 535.403381,352.406616 539.114380,358.589539 
	C546.993225,371.716614 551.905518,385.548798 554.890808,400.372589 
	C559.102356,421.285095 563.763062,442.076141 561.094482,463.704285 
	C560.098389,471.777466 558.381165,480.504059 560.396179,488.020294 
	C562.971741,497.627289 559.705017,505.903625 558.765625,514.747559 
	C558.379211,518.386108 558.229004,522.053467 557.742126,525.676880 
	C555.284485,543.965698 553.718811,562.444519 549.988098,580.473450 
	C545.776062,600.828552 538.989441,620.640625 534.445618,640.940308 
	C530.280212,659.549622 523.823608,677.865601 524.943176,697.424744 
	C525.014526,698.671204 523.597351,700.367737 522.421082,701.259094 
	C516.501648,705.744995 513.516479,711.707886 513.945374,718.984497 
	C514.325500,725.435059 515.507629,731.838318 516.054688,737.965820 
	C505.513702,721.591248 489.879272,719.194885 475.022949,731.050293 
	C464.744598,739.252441 454.012634,746.883606 443.630066,754.958496 
	C434.568451,762.006042 425.658264,769.251892 416.783356,776.534668 
	C410.607788,781.602478 404.630188,786.910828 398.520905,792.060364 
	C371.783295,814.597534 345.030701,837.116882 318.279907,859.638367 
	C317.098877,860.632690 315.882782,861.585449 313.926453,863.170532 
	C313.926453,855.185669 313.926453,848.266907 313.926453,840.935547 
	C312.524658,841.369934 311.571442,841.563110 310.703918,841.949036 
	C287.583160,852.232727 264.226593,862.025635 241.415024,872.955750 
	C206.879761,889.503357 172.760544,906.917419 138.379715,923.790466 
	C131.074448,927.375671 123.484306,930.427002 115.874756,933.329224 
	C110.807114,935.261902 105.579208,935.475952 100.259918,933.355957 
	C98.228500,932.546326 95.371819,932.470886 93.336899,933.239929 
	C84.932426,936.416321 76.667900,939.972778 68.408379,943.520935 
	C46.859379,952.777710 25.342634,962.109497 3.799467,971.379944 
	C2.937064,971.751038 1.936300,971.800598 1.000000,972.000000 
z"/>
<path fill="#FEFEFE" opacity="1.000000" stroke="none" 
	d="
M1.000000,972.468628 
	C1.936300,971.800598 2.937064,971.751038 3.799467,971.379944 
	C25.342634,962.109497 46.859379,952.777710 68.408379,943.520935 
	C76.667900,939.972778 84.932426,936.416321 93.336899,933.239929 
	C95.371819,932.470886 98.228500,932.546326 100.259918,933.355957 
	C105.579208,935.475952 110.807114,935.261902 115.874756,933.329224 
	C123.484306,930.427002 131.074448,927.375671 138.379715,923.790466 
	C172.760544,906.917419 206.879761,889.503357 241.415024,872.955750 
	C264.226593,862.025635 287.583160,852.232727 310.703918,841.949036 
	C311.571442,841.563110 312.524658,841.369934 313.926453,840.935547 
	C313.926453,848.266907 313.926453,855.185669 313.926453,863.170532 
	C315.882782,861.585449 317.098877,860.632690 318.279907,859.638367 
	C345.030701,837.116882 371.783295,814.597534 398.520905,792.060364 
	C404.630188,786.910828 410.607788,781.602478 416.783356,776.534668 
	C425.658264,769.251892 434.568451,762.006042 443.630066,754.958496 
	C454.012634,746.883606 464.744598,739.252441 475.022949,731.050293 
	C489.879272,719.194885 505.513702,721.591248 516.108704,738.192871 
	C517.286255,741.749634 518.270081,744.751404 518.949341,747.820618 
	C525.686646,778.263489 532.963623,808.556274 543.178589,837.864136 
	C540.375549,837.228455 537.982727,836.209839 535.583923,836.195496 
	C530.573792,836.165527 526.723206,841.125916 529.071899,844.710144 
	C531.842224,848.937927 535.076965,853.084961 538.898560,856.341980 
	C543.371521,860.153992 548.346130,857.470581 549.121277,851.601318 
	C549.331116,850.012329 550.352051,848.530518 551.332764,847.122253 
	C557.794861,850.806091 563.643616,855.022156 570.110291,857.799194 
	C586.257385,864.733276 603.097351,868.565613 620.698730,864.632446 
	C627.953003,863.011475 634.524475,862.062561 642.346497,863.473328 
	C658.489746,866.384888 674.806335,865.006836 690.202209,857.777344 
	C696.788696,854.684631 703.850098,852.584595 710.740234,850.160278 
	C748.271057,836.955322 784.629211,821.959106 808.281433,787.343262 
	C812.001587,798.002747 818.656250,802.135254 828.841675,800.920532 
	C831.293274,800.628113 834.310364,801.396729 836.429871,802.707947 
	C842.158875,806.252075 847.555725,806.346924 853.944275,804.148621 
	C866.564941,799.805664 870.511841,789.603271 872.784546,778.213562 
	C874.249451,770.871826 869.718201,764.126465 862.830322,761.040466 
	C861.155823,760.290222 859.485535,758.098877 859.047791,756.273987 
	C857.378540,749.314575 853.673279,745.996277 846.544312,745.926025 
	C844.882629,745.909607 843.220337,745.951904 841.646851,745.570312 
	C842.580383,738.763916 843.425476,732.354553 844.270508,725.945129 
	C863.014038,723.723511 882.605469,739.925354 883.904480,759.277100 
	C884.235413,764.206726 886.075684,767.564209 889.825806,770.049133 
	C897.310608,775.008911 904.504944,780.729919 912.616028,784.352539 
	C928.083130,791.260681 944.252686,796.579834 959.850586,803.216797 
	C969.736267,807.423157 979.926392,811.691833 988.563049,817.902893 
	C1010.152039,833.428406 1033.024048,846.555603 1056.873413,858.129395 
	C1058.819092,859.073608 1060.760864,860.056091 1062.784912,860.802307 
	C1066.694336,862.243469 1069.850464,863.567993 1069.335449,869.110779 
	C1068.934082,873.430969 1072.615112,875.843933 1076.825317,876.381775 
	C1087.026978,877.685120 1095.283081,883.352173 1103.953979,888.131897 
	C1105.530762,889.001099 1107.285889,889.545105 1108.952759,890.253113 
	C1110.778687,891.028564 1113.298096,891.315918 1114.292114,892.696655 
	C1117.630371,897.334106 1122.343872,898.215393 1127.415283,898.607788 
	C1138.220581,899.443848 1147.973755,903.649292 1157.917603,907.565491 
	C1171.213257,912.801697 1184.653442,917.855774 1198.384277,921.740845 
	C1208.515869,924.607361 1219.187988,925.127808 1229.724854,922.366028 
	C1234.708252,921.059814 1239.790771,920.078003 1244.874878,919.225708 
	C1249.642700,918.426453 1254.414795,916.460571 1259.037964,920.622437 
	C1260.506958,921.944885 1263.838257,921.555054 1266.275757,921.377441 
	C1273.236084,920.870056 1280.174927,920.069031 1287.042603,919.391357 
	C1292.705200,927.909668 1297.150879,928.978149 1306.223389,924.171082 
	C1308.556152,922.935059 1310.942017,921.799377 1313.651733,920.808777 
	C1314.000000,931.354248 1314.000000,941.708435 1313.655640,952.583496 
	C1311.876465,954.423767 1309.977295,955.486877 1309.083740,957.105347 
	C1304.032471,966.254517 1299.102661,975.476135 1294.372559,984.795349 
	C1291.226685,990.993225 1294.745483,998.374207 1301.298584,999.741455 
	C1305.506348,1000.619263 1309.764404,1001.255432 1314.000000,1002.000000 
	C1314.000000,1014.687561 1314.000000,1027.375122 1313.587158,1040.540161 
	C1309.249634,1041.729492 1305.259644,1042.196777 1301.420166,1043.226318 
	C1297.985352,1044.147461 1296.324219,1043.435669 1295.318115,1039.807739 
	C1293.063843,1031.678955 1287.674927,1026.072021 1280.301636,1022.040649 
	C1265.665039,1014.037964 1250.901367,1015.921509 1236.490479,1021.927246 
	C1223.312378,1027.419067 1210.531128,1033.886353 1197.714355,1040.206543 
	C1194.332886,1041.874023 1191.978638,1041.946289 1189.510986,1038.935913 
	C1185.750488,1034.348145 1180.551758,1031.999878 1174.882690,1033.079590 
	C1167.807983,1034.426880 1160.828125,1036.607178 1154.051025,1039.092651 
	C1146.203003,1041.970947 1141.716187,1047.960327 1141.010010,1056.397827 
	C1140.263428,1065.317505 1144.176514,1071.738647 1151.937500,1076.034790 
	C1153.137695,1076.699219 1153.987915,1077.995850 1155.000000,1079.000000 
	C1143.312378,1079.000000 1131.624878,1079.000000 1119.437500,1078.613770 
	C1117.599121,1069.992798 1114.198242,1066.993408 1106.028442,1066.912231 
	C1102.211914,1066.874268 1098.390381,1066.807983 1094.578735,1066.951782 
	C1091.636841,1067.062744 1089.921997,1065.911499 1088.069580,1063.489746 
	C1086.092041,1060.904175 1082.910645,1059.197510 1080.132324,1057.284912 
	C1078.812256,1056.376343 1076.891846,1056.205811 1075.791626,1055.136719 
	C1072.403931,1051.845215 1068.364624,1051.109985 1064.268799,1052.552124 
	C1056.164795,1055.405640 1048.061768,1058.386597 1040.291748,1062.026489 
	C1033.396484,1065.256836 1029.698730,1070.935669 1031.000000,1079.000000 
	C1000.645752,1079.000000 970.291565,1079.000000 939.542542,1078.654541 
	C946.229614,1067.785034 943.665833,1061.740356 931.161682,1059.086914 
	C929.334900,1058.699219 927.583496,1057.568848 926.007019,1056.478760 
	C923.556213,1054.784180 921.187439,1052.938965 918.965698,1050.953979 
	C916.706787,1048.935791 914.274963,1046.935181 912.613220,1044.460571 
	C908.935425,1038.983398 901.706604,1038.350952 897.344666,1043.446411 
	C896.378967,1044.574463 895.551208,1046.077637 894.308228,1046.669312 
	C886.473999,1050.398315 883.358398,1057.187622 882.580627,1065.151733 
	C882.135437,1069.710693 882.822632,1074.380249 883.000000,1079.000000 
	C872.312439,1079.000000 861.624878,1079.000000 850.522278,1078.662720 
	C852.022095,1076.287354 854.167542,1074.418945 855.814087,1072.183228 
	C865.857666,1058.545410 857.540283,1041.352539 839.768860,1037.978394 
	C822.831482,1034.762573 805.795654,1034.100708 788.623108,1033.702881 
	C775.467712,1033.398071 764.307434,1047.746338 772.495300,1062.662964 
	C776.574036,1070.093628 783.922913,1072.619019 791.621399,1073.901489 
	C799.649536,1075.238647 807.788818,1075.898071 815.854004,1077.035034 
	C817.299622,1077.238647 818.621155,1078.322510 820.000000,1079.000000 
	C711.645752,1079.000000 603.291565,1079.000000 494.465729,1078.630371 
	C497.917297,1070.901978 500.848145,1063.389160 497.454651,1054.951416 
	C494.955170,1048.736572 496.113922,1043.311768 499.488342,1037.461182 
	C506.850037,1024.697510 509.618439,1011.400757 500.783081,997.874939 
	C499.914673,996.545715 499.471222,994.748413 499.374176,993.135620 
	C498.520752,978.951904 481.915192,970.253723 467.951508,977.467957 
	C456.427399,983.421692 446.261536,991.175232 437.735077,1000.903076 
	C433.171875,1006.109253 431.020874,1012.516907 432.484009,1019.478210 
	C433.211548,1022.939880 432.217133,1024.660400 429.264069,1026.203003 
	C422.384552,1029.796753 417.535522,1035.592651 413.984863,1042.272339 
	C408.645630,1052.316772 408.163513,1062.637207 413.951019,1072.801025 
	C415.169983,1074.941772 416.643646,1076.937500 418.000000,1079.000000 
	C412.645081,1079.000000 407.290131,1079.000000 401.424622,1078.647217 
	C398.984497,1074.529907 395.914032,1070.928833 395.347168,1066.969360 
	C393.862305,1056.597412 388.921539,1050.474243 378.489990,1049.227051 
	C358.608917,1046.850098 340.379822,1051.078003 324.680634,1064.005249 
	C320.001282,1067.858276 315.862701,1072.251099 316.000000,1079.000000 
	C291.312439,1079.000000 266.624878,1079.000000 241.529083,1078.636108 
	C243.889359,1072.264526 246.483932,1066.169189 249.459900,1060.265991 
	C257.510986,1044.295898 252.550552,1025.036621 237.558884,1015.488159 
	C234.908752,1013.800232 234.094360,1012.228149 234.604492,1009.042786 
	C235.910233,1000.889648 234.603043,993.062622 229.683289,986.211060 
	C225.008286,979.700439 223.495087,972.291321 224.071121,964.631897 
	C225.286163,948.475342 215.445633,937.170654 199.253723,936.979309 
	C180.562027,936.758545 163.865768,943.626099 148.719254,953.501160 
	C133.857071,963.190796 134.465805,984.663940 149.123398,995.181152 
	C152.456665,997.572754 152.836517,999.664673 152.346313,1003.423279 
	C151.469986,1010.142578 151.080139,1017.014893 151.446655,1023.771118 
	C151.646683,1027.458252 151.082443,1028.552490 147.424896,1029.265869 
	C133.064575,1032.067017 122.652885,1044.521973 123.117653,1059.193604 
	C123.327888,1065.830200 125.640938,1072.399902 127.000000,1079.000000 
	C110.645775,1079.000000 94.291542,1079.000000 77.540390,1078.647217 
	C83.480659,1065.367432 89.542824,1052.099121 89.170097,1037.493652 
	C88.870789,1025.765381 92.892532,1017.158020 102.064697,1010.472229 
	C102.196152,1010.376404 102.299644,1010.234863 102.397041,1010.100708 
	C108.911087,1001.129211 111.526802,991.450256 106.359154,981.069031 
	C101.522285,971.352295 93.085472,967.038574 82.360474,966.963074 
	C70.404724,966.878845 61.255146,973.136169 52.327900,980.047791 
	C50.789150,981.239136 48.346870,982.687805 46.826073,982.253235 
	C34.350620,978.688416 24.791466,984.078430 15.795816,991.644287 
	C10.878393,995.780090 5.932878,999.882568 1.000007,1004.000000 
	C1.000000,993.645752 1.000000,983.291565 1.000000,972.468628 
M824.309021,982.949219 
	C814.297302,978.096558 803.344421,977.501282 792.653748,977.283813 
	C782.121155,977.069519 771.415222,978.154053 761.034973,980.041565 
	C753.209656,981.464355 748.598877,988.647888 748.103149,996.551147 
	C747.671021,1003.441040 751.960999,1010.378418 759.067078,1013.450867 
	C762.066589,1014.747803 765.391479,1015.540833 768.645508,1015.948792 
	C775.560791,1016.815796 782.527344,1017.271423 789.471313,1017.912598 
	C797.076111,1018.614868 804.673706,1019.861328 812.283936,1019.939514 
	C827.961121,1020.100647 837.384155,1004.207336 830.225342,990.358093 
	C829.527222,989.007446 829.353271,987.385864 829.554260,986.241821 
	C837.796936,990.200256 846.118408,994.006775 854.232483,998.213135 
	C856.553589,999.416504 858.762756,1001.464355 860.178223,1003.667786 
	C864.358643,1010.174805 869.851013,1013.852600 877.751770,1014.178223 
	C881.819397,1014.345886 885.971069,1015.055359 889.870850,1016.230042 
	C901.418213,1019.708252 913.178223,1012.058533 913.922791,999.956543 
	C914.677979,987.681885 908.977722,978.442749 898.242126,973.254578 
	C886.432556,967.547363 874.028625,963.062927 861.848511,958.132507 
	C855.527649,955.573853 849.243103,952.840210 842.743347,950.827637 
	C831.508850,947.348938 821.510315,953.246399 818.636169,964.607117 
	C816.728394,972.147827 820.320007,977.805481 824.309021,982.949219 
M308.735382,937.290161 
	C314.324738,936.661865 320.009888,936.485779 325.486603,935.325684 
	C347.453583,930.672913 369.665375,929.620667 392.023102,929.971680 
	C395.524139,930.026672 397.895294,931.161438 400.050140,933.941833 
	C403.304321,938.140381 406.696472,942.345886 410.634949,945.872925 
	C416.189728,950.847351 422.753540,953.635437 430.405853,951.014893 
	C438.111206,948.376221 442.980377,943.051147 444.497620,934.965393 
	C446.027100,926.814575 442.190033,920.641846 437.291229,914.575623 
	C432.592499,908.757202 428.626190,902.347412 423.744873,895.346741 
	C429.691650,895.051941 434.016083,894.837585 439.036865,894.588745 
	C434.965668,887.965637 429.735870,885.024841 423.483948,882.987305 
	C414.834106,880.168396 406.430237,876.600647 397.880890,873.463013 
	C395.886261,872.730957 393.751953,872.298523 391.644196,871.970825 
	C384.622772,870.879272 377.585358,869.890015 370.551727,868.877808 
	C367.437775,868.429749 366.051575,866.846436 365.992157,863.520264 
	C365.892090,857.917603 362.742676,854.348511 357.570374,852.315674 
	C351.120544,849.780823 345.504456,852.254028 340.791687,855.957581 
	C332.439392,862.521301 324.666565,869.821655 316.635284,876.795349 
	C315.268005,877.982544 313.977356,879.407837 312.385498,880.162415 
	C301.571228,885.288879 290.662354,890.215576 279.833130,895.311035 
	C274.616394,897.765625 270.643738,902.057922 271.262756,907.713989 
	C272.041229,914.827026 274.180695,921.911194 276.686646,928.653381 
	C277.630524,931.192932 280.996277,933.975708 283.682709,934.509338 
	C291.644745,936.090881 299.818329,936.607117 308.735382,937.290161 
M1112.590088,967.994690 
	C1119.510376,971.907654 1126.001587,977.169434 1134.490967,976.816406 
	C1138.926147,976.632019 1141.699951,978.421936 1144.058472,981.753235 
	C1149.385254,989.277039 1156.625977,994.492920 1164.636230,998.822876 
	C1167.254150,1000.237976 1169.771484,1001.923096 1172.092285,1003.786743 
	C1177.988525,1008.521912 1184.329956,1010.050598 1191.705444,1007.741455 
	C1194.447998,1006.882751 1197.541382,1006.665039 1200.432251,1006.843140 
	C1211.856079,1007.546753 1222.548950,1005.514771 1232.713867,1000.018799 
	C1237.477173,997.443298 1242.787842,995.856140 1247.901978,993.960266 
	C1253.971436,991.710510 1260.383179,990.184509 1266.130127,987.311584 
	C1274.859497,982.947510 1278.766724,972.951965 1276.182495,964.000549 
	C1272.787109,952.239807 1262.111816,946.030029 1250.187012,948.942993 
	C1247.114502,949.693542 1244.055542,950.536438 1241.051636,951.523438 
	C1228.527588,955.638550 1217.010254,954.502625 1206.032959,946.469666 
	C1197.465210,940.199951 1187.601685,938.333984 1177.025024,940.988098 
	C1175.743774,941.309570 1173.861450,940.148621 1172.548462,939.249939 
	C1169.299194,937.025696 1166.506958,933.211243 1163.010620,932.460815 
	C1155.550171,930.859680 1148.982178,927.620605 1142.274536,924.373169 
	C1140.094971,923.317993 1137.464722,923.121094 1135.010132,922.718140 
	C1123.377075,920.808594 1109.713989,927.562439 1104.730713,937.726074 
	C1100.510376,946.333313 1100.054565,957.821411 1112.590088,967.994690 
M1018.591919,867.112427 
	C1011.242737,874.291687 1007.617981,882.850342 1009.085083,893.216370 
	C1009.619934,896.996094 1010.051697,900.844177 1011.139526,904.478882 
	C1012.719727,909.758484 1010.541321,911.700073 1005.714661,913.334900 
	C988.087280,919.305664 971.503967,927.181824 958.335876,940.967102 
	C950.744812,948.913879 948.916016,958.058472 952.337646,968.126099 
	C955.127686,976.335449 964.961853,981.857849 975.366272,981.986023 
	C985.327209,982.108704 994.124756,978.059570 1003.130737,974.575623 
	C1005.349365,973.717285 1008.564026,973.304626 1010.524536,974.282837 
	C1018.335205,978.180176 1026.318115,978.729980 1033.422852,974.108459 
	C1044.676514,966.788269 1055.740723,959.002075 1065.973999,950.336975 
	C1076.436157,941.478088 1075.727295,931.616272 1068.979126,919.645691 
	C1064.526001,911.746338 1056.958252,903.974976 1063.738159,892.148376 
	C1070.116089,881.023071 1060.351562,866.609253 1047.440918,864.922974 
	C1046.013794,864.736572 1044.456421,864.345276 1043.289062,863.559387 
	C1033.203979,856.770081 1027.520508,857.429626 1018.591919,867.112427 
M282.366211,1029.159546 
	C292.200897,1034.743896 302.453796,1035.633789 312.977753,1031.460938 
	C315.209930,1038.401123 315.964783,1038.841797 323.363220,1037.835693 
	C324.021515,1037.746094 324.684906,1037.631104 325.319702,1037.440552 
	C335.499817,1034.385132 345.937866,1031.961792 355.744598,1027.983276 
	C360.836334,1025.917603 365.586823,1021.725037 369.108887,1017.374146 
	C374.527191,1010.680969 378.946930,1003.139771 383.405396,995.726807 
	C385.524017,992.204224 387.376984,988.287842 388.276215,984.307129 
	C391.815674,968.638855 385.732025,955.143066 369.525360,952.921570 
	C368.564423,952.789917 367.508270,952.517212 366.735443,951.971558 
	C351.530762,941.235718 336.427673,943.509766 321.238831,952.062561 
	C319.307770,953.149963 316.905640,953.651489 314.664368,953.893677 
	C305.147552,954.922180 296.116425,957.507568 289.720612,964.899780 
	C282.783569,972.917419 276.188019,981.345886 270.467072,990.252563 
	C267.532593,994.821167 265.813568,1000.734497 265.337738,1006.196289 
	C264.452759,1016.354675 267.848999,1023.243530 282.366211,1029.159546 
M536.716003,905.919983 
	C536.586426,902.778992 536.204346,899.623962 536.378601,896.499939 
	C536.771729,889.451660 537.942200,882.413208 537.866028,875.380859 
	C537.776062,867.067383 533.569763,861.035339 525.872314,857.281189 
	C519.660339,854.251709 513.667175,855.177368 507.380035,856.629272 
	C504.442444,857.307678 501.136810,857.502686 498.211884,856.892212 
	C492.276398,855.653381 487.218109,856.718201 483.207977,861.221252 
	C474.676208,870.801453 469.029877,881.896179 466.077972,894.723022 
	C469.294434,894.934692 472.195770,895.125610 475.097137,895.316528 
	C475.471161,895.811218 475.845184,896.305969 476.219208,896.800720 
	C474.531830,898.858948 473.218475,901.486328 471.095398,902.881592 
	C458.854431,910.926147 457.281067,924.859375 467.617432,935.167297 
	C469.845581,937.389221 471.869171,939.833313 473.841095,942.292114 
	C480.739716,950.893616 489.901276,952.328857 499.031952,946.371948 
	C500.890350,945.159424 503.143555,944.304504 505.329559,943.889587 
	C511.234589,942.768921 517.150269,941.035767 520.354126,935.858398 
	C526.191162,926.425964 531.183411,916.470703 536.716003,905.919983 
M421.294708,791.956848 
	C409.846191,791.345825 401.583496,798.058594 393.130859,804.272278 
	C387.590881,808.344910 383.015320,813.496033 382.440765,820.460938 
	C382.055664,825.129639 380.128876,827.486267 376.470459,829.763550 
	C368.806580,834.534180 366.479248,841.148926 369.305267,848.444885 
	C372.139099,855.760864 379.107300,859.536865 387.589996,857.771606 
	C394.891968,856.252014 402.041565,854.005859 409.333557,852.427490 
	C410.726929,852.125854 413.258240,852.967346 413.924347,854.082275 
	C418.532928,861.796082 425.148376,866.452332 433.654541,869.166504 
	C450.870972,874.660278 466.819305,863.085999 467.152222,844.814636 
	C467.304047,836.481445 463.024628,830.256470 458.476013,824.079163 
	C453.984344,817.979187 447.963684,812.953125 446.249969,804.966919 
	C445.850342,803.104614 443.989075,800.901733 442.232666,800.101624 
	C435.673706,797.113464 428.878845,794.643127 421.294708,791.956848 
M607.183716,1015.888550 
	C593.718323,1015.618286 580.253906,1015.271606 566.787231,1015.104736 
	C557.841187,1014.993835 548.714600,1013.780273 540.241821,1017.897644 
	C533.683350,1021.084717 529.360657,1026.032349 529.014771,1033.708252 
	C528.668152,1041.400146 532.381287,1047.017822 538.903625,1050.277710 
	C543.430603,1052.540527 548.546265,1054.102905 553.564636,1054.822876 
	C576.005127,1058.041504 598.561584,1059.439087 621.184998,1056.943115 
	C629.758301,1055.997192 638.432800,1055.143433 646.766479,1053.065796 
	C656.560120,1050.624146 663.007019,1040.395996 661.608337,1031.504639 
	C659.852051,1020.339844 651.861694,1012.738342 640.875671,1013.088623 
	C629.938416,1013.437378 619.035461,1014.857910 607.183716,1015.888550 
M1041.071899,1038.241211 
	C1043.253418,1030.696167 1041.826294,1023.818237 1036.011841,1018.608948 
	C1032.769775,1015.704285 1028.546875,1013.791199 1024.567871,1011.833740 
	C1016.683716,1007.955200 1008.506775,1007.565125 1000.489136,1011.304443 
	C997.440491,1012.726318 995.904358,1012.204224 993.938721,1009.575195 
	C990.011780,1004.322693 984.377625,1001.337158 977.889954,1002.102783 
	C968.382996,1003.224670 958.740784,1004.463562 949.608032,1007.174744 
	C938.048035,1010.606506 929.435059,1025.460938 931.354675,1036.281250 
	C933.500122,1048.374634 943.523682,1055.926270 957.631287,1056.023804 
	C964.288574,1056.069824 970.954407,1055.850708 977.599365,1056.141235 
	C979.725098,1056.234131 982.227478,1057.071899 983.822998,1058.431030 
	C995.114258,1068.050293 1006.615845,1067.181030 1016.556213,1055.882812 
	C1017.730591,1054.547974 1019.725769,1053.313965 1021.434326,1053.173462 
	C1030.883179,1052.395996 1037.214966,1047.633423 1041.071899,1038.241211 
M850.580078,917.072021 
	C855.272522,918.740906 859.894348,920.655945 864.672363,922.026672 
	C874.215210,924.764404 883.743896,927.711243 893.465088,929.622009 
	C903.016418,931.499329 913.118042,924.951416 915.572327,916.415894 
	C918.191406,907.307373 913.818054,898.348083 904.626465,893.727600 
	C903.224670,893.022949 901.314331,892.031128 900.944397,890.784729 
	C898.684387,883.170105 892.719604,878.818237 886.883850,874.468628 
	C881.294556,870.302673 875.651672,865.994019 869.456909,862.900513 
	C857.343689,856.851501 846.372620,862.082947 836.178528,868.336121 
	C826.650635,874.180542 825.827026,885.982178 833.579041,894.047058 
	C834.642334,895.153320 835.779907,896.731689 835.861450,898.150208 
	C836.401550,907.547485 841.095947,913.664062 850.580078,917.072021 
M938.759216,840.564392 
	C947.495911,837.610413 951.179565,832.749756 951.097595,824.660461 
	C951.014832,816.495605 945.675964,812.632568 939.168518,809.658997 
	C931.786438,806.285950 924.439453,802.827148 916.967102,799.665894 
	C914.578369,798.655396 911.863037,798.282959 909.254761,797.953674 
	C903.838684,797.269775 898.352722,797.067871 892.970154,796.203369 
	C882.387146,794.503723 867.469604,802.398071 870.259155,816.882446 
	C870.590759,818.604065 868.939026,821.107239 867.561890,822.685791 
	C862.865173,828.069641 861.882874,833.280579 864.843201,839.700500 
	C868.154053,846.880615 876.199036,849.876648 885.325012,847.357117 
	C888.202454,846.562683 891.110779,845.151306 893.985596,845.198792 
	C908.841187,845.443970 923.560608,844.749268 938.759216,840.564392 
M754.645691,914.919006 
	C746.884705,918.410767 742.138062,924.244690 741.431091,932.821411 
	C741.147400,936.263489 741.939758,939.781372 741.859131,943.255859 
	C741.675964,951.141418 745.562317,957.064026 752.577026,958.932922 
	C759.419861,960.755920 767.251587,961.535339 774.094360,960.109741 
	C786.585632,957.507202 798.777344,953.258179 810.885742,949.090942 
	C821.008667,945.606995 826.820923,934.896606 824.406189,925.756714 
	C821.391785,914.347229 811.296082,907.759460 799.877197,909.449219 
	C794.462280,910.250549 788.952637,910.389526 783.511108,911.039368 
	C774.126526,912.160156 764.761597,913.445557 754.645691,914.919006 
M552.728394,974.697754 
	C551.009399,981.867859 551.342773,988.655518 556.838501,994.257080 
	C561.673157,999.184814 567.817566,1001.011047 574.547363,1001.030334 
	C590.875305,1001.077087 607.203796,1001.108887 623.531433,1001.028809 
	C635.114441,1000.972046 644.463379,992.393066 644.970093,981.574158 
	C645.484131,970.598633 637.151794,960.394958 625.657410,960.163757 
	C608.751099,959.823730 591.793884,960.456970 574.904724,961.458618 
	C565.953247,961.989502 557.399170,964.689636 552.728394,974.697754 
M967.512024,842.864258 
	C954.244019,845.895691 941.064575,849.429993 927.677856,851.787659 
	C918.220581,853.453186 911.569031,859.606262 911.982483,868.500183 
	C912.378967,877.029907 919.494080,883.178894 929.068420,882.987549 
	C935.208435,882.864868 941.349487,882.492126 947.474487,882.026855 
	C951.284546,881.737366 953.553467,882.898193 955.017700,886.744629 
	C957.184082,892.435486 961.762329,894.773560 967.938965,895.114685 
	C974.715576,895.489014 979.815125,892.742737 984.478210,888.394714 
	C991.343018,881.993652 1000.123291,877.552612 1004.361816,868.473389 
	C1009.566528,857.324707 1002.838135,846.377869 990.535278,845.900452 
	C987.809998,845.794678 985.146240,844.577454 982.408997,844.199768 
	C977.739319,843.555359 973.033813,843.170471 967.512024,842.864258 
M558.073486,915.259033 
	C555.700867,916.037781 553.239929,916.618591 550.971741,917.631287 
	C543.305603,921.054138 539.533020,927.482178 539.958130,936.035950 
	C540.283020,942.574219 544.924194,948.240479 552.524841,950.537170 
	C556.636963,951.779785 560.998779,952.883484 565.244995,952.872803 
	C581.514526,952.831848 597.793945,952.573364 614.047974,951.885010 
	C625.259460,951.410156 634.353699,941.546814 633.855286,931.350647 
	C633.288513,919.755798 624.845520,911.594360 612.692383,912.042664 
	C594.751221,912.704407 576.835632,914.056091 558.073486,915.259033 
M515.246399,782.503540 
	C517.710083,777.596924 517.036499,772.872253 514.590759,768.153137 
	C510.955353,761.138428 507.110535,754.206238 503.944031,746.980713 
	C499.184753,736.120789 490.736725,733.055725 480.647369,739.600586 
	C470.598175,746.119385 460.840942,753.095276 451.060333,760.018616 
	C445.365967,764.049377 442.074829,769.626221 443.195740,776.720398 
	C444.307159,783.754639 448.957397,788.344238 455.649872,790.332336 
	C464.257568,792.889465 472.994324,795.030396 481.721802,797.161133 
	C491.524597,799.554443 508.184509,793.150452 513.955017,784.940735 
	C514.335388,784.399536 514.597900,783.775513 515.246399,782.503540 
M794.570557,859.052246 
	C801.501831,851.807800 802.463257,842.174072 795.788391,836.556946 
	C788.619995,830.524597 775.456055,825.851013 765.485962,832.961792 
	C756.923950,839.068298 746.855225,843.060974 737.458435,847.999084 
	C734.964355,849.309692 732.316895,850.416138 730.043274,852.040894 
	C724.767761,855.810791 722.876831,863.443542 725.138611,869.476929 
	C726.108521,872.064026 726.714355,874.853577 727.040649,877.604004 
	C728.141052,886.878845 735.649292,892.012695 744.576477,889.245056 
	C746.929810,888.515564 749.211731,887.379211 751.333313,886.107483 
	C762.586792,879.361572 773.798645,872.545532 784.978821,865.678772 
	C788.085083,863.770935 791.033936,861.606873 794.570557,859.052246 
M1088.956177,1032.451782 
	C1091.053223,1034.592285 1093.100220,1036.784424 1095.255859,1038.864136 
	C1104.167847,1047.462036 1117.990601,1046.674194 1126.331177,1037.128052 
	C1133.812378,1028.565552 1132.348145,1014.929382 1123.191284,1007.387085 
	C1121.525879,1006.015381 1120.060059,1004.403992 1118.473267,1002.934326 
	C1107.985474,993.221375 1095.433472,989.186218 1081.368286,990.159851 
	C1072.432495,990.778442 1064.585449,997.857788 1063.186401,1005.611816 
	C1061.703979,1013.827515 1065.994629,1021.131653 1074.927612,1025.508301 
	C1079.403931,1027.701416 1083.914185,1029.825195 1088.956177,1032.451782 
M527.270691,821.668518 
	C527.717773,820.238037 528.307190,818.834778 528.587219,817.372314 
	C529.768250,811.203613 527.634827,806.176086 522.835938,802.351624 
	C518.447021,798.853943 512.725708,797.157104 508.490997,800.684814 
	C502.397339,805.761108 496.758118,804.474976 490.508453,802.437195 
	C489.424164,802.083679 488.210144,802.065002 487.050720,802.015137 
	C479.939819,801.709290 473.345886,805.705750 471.473358,811.417542 
	C469.470978,817.525452 472.378662,823.441040 478.748901,827.950256 
	C481.243927,829.716370 483.575867,832.435974 484.734955,835.237305 
	C489.074066,845.724121 500.810303,848.713501 509.298706,841.168884 
	C510.655945,839.962524 511.977417,838.366516 513.598206,837.865540 
	C521.353638,835.468506 525.046997,829.739502 527.270691,821.668518 
M434.115234,990.545837 
	C440.971130,981.284790 440.536743,973.264893 432.796936,966.207703 
	C426.347534,960.327026 417.192627,961.031799 409.436066,967.999695 
	C407.830994,969.441467 406.106445,970.765686 404.613983,972.314636 
	C398.502869,978.657043 392.230560,984.818665 391.360229,994.436646 
	C390.573517,1003.130066 396.185760,1010.465027 404.757629,1009.840393 
	C409.637878,1009.484741 415.037781,1007.928284 418.988983,1005.171570 
	C424.479065,1001.341125 428.829254,995.876831 434.115234,990.545837 
M850.554016,839.780457 
	C850.708496,831.065796 846.949646,823.512146 843.455811,815.881104 
	C843.389832,815.737122 843.235046,815.634277 843.123962,815.510315 
	C836.010132,807.578186 819.953064,807.928772 812.811401,817.045898 
	C804.820679,827.246948 804.201538,839.039246 816.647522,847.092346 
	C818.593567,848.351562 820.683228,849.466248 822.837891,850.313354 
	C835.263184,855.197998 846.299622,851.235718 850.554016,839.780457 
M925.333069,932.736145 
	C924.200623,932.496338 923.078491,932.127930 921.934143,932.036255 
	C906.914307,930.833191 897.939392,942.972412 904.237000,956.673828 
	C906.376038,961.327820 910.038391,965.614868 913.901733,969.065186 
	C919.746216,974.285034 928.222473,974.414124 934.336487,970.466370 
	C940.179688,966.693481 943.448486,958.940796 941.434937,952.188416 
	C938.939758,943.821045 934.668213,936.636475 925.333069,932.736145 
M602.281738,893.001709 
	C606.031555,888.541199 608.166565,883.681824 605.745728,877.843384 
	C603.660828,872.815552 599.830933,869.554016 594.464722,869.138306 
	C585.346680,868.432007 576.186157,868.119385 567.038879,868.001282 
	C561.088196,867.924316 556.950134,871.224182 555.391174,876.427246 
	C553.810364,881.703308 555.826965,888.159424 560.906372,890.710571 
	C565.093933,892.813904 569.859985,894.354980 574.502747,894.822327 
	C581.266724,895.503235 588.153503,895.117920 594.980713,894.927673 
	C597.220947,894.865356 599.438782,893.995667 602.281738,893.001709 
M1077.963257,907.689331 
	C1077.559570,914.558655 1081.697266,919.164612 1086.029785,923.601318 
	C1090.444702,928.122498 1095.042725,929.042603 1099.450195,926.534485 
	C1103.449219,924.258789 1105.100342,919.537415 1103.673340,913.794373 
	C1102.553223,909.286865 1101.268921,904.815979 1099.917480,900.371460 
	C1098.593140,896.016052 1095.547485,893.936157 1090.973633,893.901001 
	C1085.171753,893.856384 1079.852783,899.102661 1077.963257,907.689331 
M711.915588,934.606018 
	C716.840942,930.961182 722.127319,927.705505 726.591736,923.563782 
	C731.210083,919.279236 731.287598,913.782227 727.808594,910.262695 
	C724.532043,906.947937 718.585999,907.085999 714.089661,910.393555 
	C709.549194,913.733521 704.867615,916.881165 700.292114,920.174561 
	C698.544434,921.432373 696.738464,922.689941 695.273010,924.243835 
	C691.187195,928.575989 692.261047,933.399658 697.723694,935.859314 
	C702.379761,937.955811 706.831909,936.892639 711.915588,934.606018 
M766.174744,894.997986 
	C779.659668,894.996155 793.145691,894.894165 806.628784,895.051025 
	C810.903870,895.100708 812.174866,893.186890 811.996582,889.279236 
	C811.610413,880.814697 803.329651,874.204041 794.821106,876.408264 
	C782.583923,879.578491 772.847412,887.521667 762.584961,894.754272 
	C763.518372,894.835022 764.451843,894.915833 766.174744,894.997986 
M660.967163,926.534424 
	C666.363647,928.535889 671.638733,931.019653 677.187378,932.416565 
	C684.095947,934.155823 690.716248,930.555969 691.823120,925.315491 
	C692.935364,920.049988 688.668823,915.816467 680.923706,914.209351 
	C678.729675,913.754089 676.295837,913.184692 674.592163,911.866333 
	C668.705994,907.311279 663.837646,906.945557 659.470886,911.251221 
	C655.761047,914.909119 656.151611,920.970093 660.967163,926.534424 
M671.375488,985.157104 
	C668.451416,991.551941 670.052307,996.653381 676.222107,999.625671 
	C684.503967,1003.615356 692.636841,1002.868652 700.471802,998.246155 
	C704.324585,995.972961 707.607910,992.162109 706.153320,988.229187 
	C705.226624,985.723572 700.346863,984.095947 696.945496,983.230408 
	C692.186646,982.019470 687.133606,982.014832 682.244385,981.250854 
	C678.156433,980.612000 674.661133,981.326416 671.375488,985.157104 
M670.514526,940.029541 
	C664.935486,948.683960 666.021179,957.824463 669.137268,966.802490 
	C670.629333,971.101562 675.683105,972.963928 679.981323,971.723572 
	C683.991272,970.566528 686.208313,967.737366 685.932922,963.586304 
	C685.516541,957.309265 685.027100,951.006287 684.000549,944.808411 
	C682.720581,937.080383 677.522461,935.105652 670.514526,940.029541 
M703.010010,1025.324829 
	C708.929443,1029.982788 714.927612,1029.775024 717.705505,1024.075439 
	C720.369263,1018.609985 722.431702,1012.713379 723.779114,1006.783752 
	C725.103821,1000.954407 720.210266,997.446106 714.851440,1000.139954 
	C708.372925,1003.396729 703.725525,1008.686523 701.812744,1015.676758 
	C701.062683,1018.417603 702.236816,1021.685059 703.010010,1025.324829 
M715.920410,1071.963989 
	C722.797302,1072.444336 728.813354,1070.551636 733.299805,1065.137207 
	C735.893372,1062.007202 737.218201,1058.282227 734.507141,1054.625977 
	C731.923462,1051.141479 728.204041,1051.612061 724.500793,1052.731812 
	C720.552856,1053.925659 716.592468,1055.092896 712.596252,1056.109253 
	C707.265625,1057.464844 704.835876,1063.721680 708.486023,1067.825317 
	C710.130432,1069.673828 712.850708,1070.565308 715.920410,1071.963989 
M720.668213,962.541382 
	C720.955017,966.618042 720.534729,970.906738 721.680359,974.725769 
	C723.852844,981.968018 732.009033,983.283325 736.987488,977.589417 
	C740.381592,973.707397 740.470459,969.101562 739.536255,964.426147 
	C738.589844,959.690002 736.130981,956.041382 730.950867,955.320068 
	C725.876526,954.613464 722.937134,957.577576 720.668213,962.541382 
M750.498169,1029.524292 
	C743.882446,1028.346191 740.465881,1029.663696 737.752869,1034.438965 
	C735.112854,1039.085693 735.650208,1045.356079 739.035095,1049.400757 
	C743.206482,1054.385254 750.865784,1053.855347 754.341675,1048.341797 
	C758.654053,1041.501587 757.626587,1035.489624 750.498169,1029.524292 
M704.037598,1038.579956 
	C701.021240,1035.767334 697.521973,1035.046387 693.989380,1037.135620 
	C689.400208,1039.849731 686.844360,1044.020874 687.032593,1049.505737 
	C687.255493,1056.000488 693.985718,1059.688232 699.594238,1056.469116 
	C705.406860,1053.132935 707.610291,1045.492920 704.037598,1038.579956 
M699.601929,949.072449 
	C694.057068,950.361206 690.935120,953.623657 691.163391,957.890808 
	C691.420898,962.705383 696.738342,968.527832 701.453674,968.668762 
	C705.957458,968.803345 708.994812,966.359680 710.367737,962.082153 
	C712.090332,956.715576 707.432739,950.715759 699.601929,949.072449 
M991.995667,832.276428 
	C991.482910,824.823975 983.668091,817.967773 976.378967,819.186157 
	C974.154602,819.557922 971.137146,821.527588 970.527893,823.422791 
	C969.926758,825.292786 971.361206,828.487793 972.899353,830.212830 
	C975.047424,832.621887 978.111328,834.219238 980.800354,836.140137 
	C985.445190,839.458069 989.219421,838.407532 991.995667,832.276428 
M890.754578,868.871155 
	C895.097961,870.925476 898.515259,869.299622 900.340332,865.433655 
	C902.157959,861.583374 901.127136,857.666077 897.144226,855.565125 
	C894.584167,854.214600 891.569580,853.178955 888.712463,853.053223 
	C882.999573,852.801880 879.931213,858.309998 883.216370,863.038330 
	C884.821472,865.348511 887.750244,866.739075 890.754578,868.871155 
M702.283203,880.116333 
	C699.720459,881.404785 696.432495,882.105347 694.785767,884.136414 
	C692.898865,886.463928 692.468567,889.972351 691.405396,892.967651 
	C694.289917,893.635376 697.166443,894.809937 700.060791,894.855530 
	C704.744812,894.929382 706.476929,891.070190 707.531616,887.376343 
	C708.571228,883.735413 706.512634,881.388794 702.283203,880.116333 
M672.917236,882.002319 
	C677.155945,880.962524 681.638367,880.465759 685.554810,878.708069 
	C688.585388,877.347900 688.195679,874.242859 684.915833,873.336670 
	C681.318176,872.342651 677.382019,871.898560 673.682190,872.224243 
	C671.722473,872.396667 669.051880,874.339111 668.304382,876.145508 
	C667.166687,878.894836 668.852539,881.249207 672.917236,882.002319 
M630.710449,882.826965 
	C634.746094,887.385193 640.430847,888.269836 644.842468,885.020325 
	C647.477722,883.079163 648.214478,879.825989 645.893982,878.257996 
	C643.145752,876.401062 639.225159,875.487854 635.849304,875.575378 
	C632.530945,875.661438 630.258179,878.306763 630.710449,882.826965 
M664.885071,882.830200 
	C663.824829,881.009949 663.187317,878.417114 661.604858,877.551270 
	C659.256897,876.266663 656.187622,875.672485 653.537231,875.931030 
	C652.683044,876.014404 651.001160,880.685608 651.736389,881.577271 
	C654.092102,884.434265 657.083069,887.352844 660.442505,888.616943 
	C663.273682,889.682251 664.958435,886.721802 664.885071,882.830200 
M453.935486,888.749817 
	C454.830658,888.324951 455.840424,888.046082 456.600616,887.449280 
	C459.498718,885.174011 461.236206,881.952942 459.076019,878.817383 
	C457.831085,877.010315 454.372925,875.427429 452.266602,875.792908 
	C448.240540,876.491638 446.520752,879.896606 446.963623,884.119019 
	C447.361053,887.907593 449.632843,889.198059 453.935486,888.749817 
M716.799988,867.438721 
	C719.289368,864.508301 719.893921,861.221924 716.658508,858.833191 
	C715.357605,857.872803 711.600464,858.074768 710.744263,859.157532 
	C709.266663,861.026123 708.069824,864.374146 708.763733,866.420166 
	C709.927063,869.850037 713.257263,869.603943 716.799988,867.438721 
M632.231201,894.969543 
	C632.680786,894.805908 633.130432,894.642273 633.580017,894.478699 
	C631.364685,892.233704 629.451416,889.469116 626.820312,887.939148 
	C625.248962,887.025574 622.304932,887.521973 620.452332,888.393250 
	C619.310486,888.930481 618.494568,891.422424 618.641663,892.928284 
	C618.720215,893.733032 621.106201,894.747437 622.530823,894.895142 
	C625.487793,895.201660 628.498230,894.993164 632.231201,894.969543 
M703.813171,910.521057 
	C703.406799,908.853699 703.456604,906.745728 702.427246,905.680298 
	C701.784424,905.014893 699.144043,905.453552 698.097168,906.279846 
	C697.334229,906.882202 697.318604,910.029419 697.642639,910.144287 
	C699.404053,910.768677 701.374329,910.803711 703.813171,910.521057 
z"/>
<path fill="#FFFFFF" opacity="1.000000" stroke="none" 
	d="
M1314.000000,60.540295 
	C876.639832,60.999981 439.279602,60.999958 1.459705,60.999969 
	C1.000000,41.005856 1.000000,21.011711 1.000000,1.048935 
	C438.666656,1.048935 876.333313,1.048935 1314.000000,1.048935 
	C1314.000000,20.758776 1314.000000,40.419682 1314.000000,60.540295 
z"/>
<path fill="#DBDBDB" opacity="1.000000" stroke="none" 
	d="
M127.468658,1079.000000 
	C125.640938,1072.399902 123.327888,1065.830200 123.117653,1059.193604 
	C122.652885,1044.521973 133.064575,1032.067017 147.424896,1029.265869 
	C151.082443,1028.552490 151.646683,1027.458252 151.446655,1023.771118 
	C151.080139,1017.014893 151.469986,1010.142578 152.346313,1003.423279 
	C152.836517,999.664673 152.456665,997.572754 149.123398,995.181152 
	C134.465805,984.663940 133.857071,963.190796 148.719254,953.501160 
	C163.865768,943.626099 180.562027,936.758545 199.253723,936.979309 
	C215.445633,937.170654 225.286163,948.475342 224.071121,964.631897 
	C223.495087,972.291321 225.008286,979.700439 229.683289,986.211060 
	C234.603043,993.062622 235.910233,1000.889648 234.604492,1009.042786 
	C234.094360,1012.228149 234.908752,1013.800232 237.558884,1015.488159 
	C252.550552,1025.036621 257.510986,1044.295898 249.459900,1060.265991 
	C246.483932,1066.169189 243.889359,1072.264526 241.060425,1078.636108 
	C203.312439,1079.000000 165.624878,1079.000000 127.468658,1079.000000 
z"/>
<path fill="#DBDBDB" opacity="1.000000" stroke="none" 
	d="
M1.000007,1004.468628 
	C5.932878,999.882568 10.878393,995.780090 15.795816,991.644287 
	C24.791466,984.078430 34.350620,978.688416 46.826073,982.253235 
	C48.346870,982.687805 50.789150,981.239136 52.327900,980.047791 
	C61.255146,973.136169 70.404724,966.878845 82.360474,966.963074 
	C93.085472,967.038574 101.522285,971.352295 106.359154,981.069031 
	C111.526802,991.450256 108.911087,1001.129211 102.397041,1010.100708 
	C102.299644,1010.234863 102.196152,1010.376404 102.064697,1010.472229 
	C92.892532,1017.158020 88.870789,1025.765381 89.170097,1037.493652 
	C89.542824,1052.099121 83.480659,1065.367432 77.071732,1078.647217 
	C51.740276,1079.000000 26.480555,1079.000000 1.000000,1079.000000 
	C1.000000,1054.312866 1.000000,1029.625122 1.000007,1004.468628 
z"/>
<path fill="#DBDBDB" opacity="1.000000" stroke="none" 
	d="
M1155.468628,1079.000000 
	C1153.987915,1077.995850 1153.137695,1076.699219 1151.937500,1076.034790 
	C1144.176514,1071.738647 1140.263428,1065.317505 1141.010010,1056.397827 
	C1141.716187,1047.960327 1146.203003,1041.970947 1154.051025,1039.092651 
	C1160.828125,1036.607178 1167.807983,1034.426880 1174.882690,1033.079590 
	C1180.551758,1031.999878 1185.750488,1034.348145 1189.510986,1038.935913 
	C1191.978638,1041.946289 1194.332886,1041.874023 1197.714355,1040.206543 
	C1210.531128,1033.886353 1223.312378,1027.419067 1236.490479,1021.927246 
	C1250.901367,1015.921509 1265.665039,1014.037964 1280.301636,1022.040649 
	C1287.674927,1026.072021 1293.063843,1031.678955 1295.318115,1039.807739 
	C1296.324219,1043.435669 1297.985352,1044.147461 1301.420166,1043.226318 
	C1305.259644,1042.196777 1309.249634,1041.729492 1313.587158,1041.008789 
	C1314.000000,1053.638428 1314.000000,1066.276978 1314.000000,1079.000000 
	C1261.312500,1079.000000 1208.624878,1079.000000 1155.468628,1079.000000 
z"/>
<path fill="#DBDBDB" opacity="1.000000" stroke="none" 
	d="
M418.468658,1079.000000 
	C416.643646,1076.937500 415.169983,1074.941772 413.951019,1072.801025 
	C408.163513,1062.637207 408.645630,1052.316772 413.984863,1042.272339 
	C417.535522,1035.592651 422.384552,1029.796753 429.264069,1026.203003 
	C432.217133,1024.660400 433.211548,1022.939880 432.484009,1019.478210 
	C431.020874,1012.516907 433.171875,1006.109253 437.735077,1000.903076 
	C446.261536,991.175232 456.427399,983.421692 467.951508,977.467957 
	C481.915192,970.253723 498.520752,978.951904 499.374176,993.135620 
	C499.471222,994.748413 499.914673,996.545715 500.783081,997.874939 
	C509.618439,1011.400757 506.850037,1024.697510 499.488342,1037.461182 
	C496.113922,1043.311768 494.955170,1048.736572 497.454651,1054.951416 
	C500.848145,1063.389160 497.917297,1070.901978 493.997070,1078.630371 
	C468.979095,1079.000000 443.958221,1079.000000 418.468658,1079.000000 
z"/>
<path fill="#DBDBDB" opacity="1.000000" stroke="none" 
	d="
M820.468628,1079.000000 
	C818.621155,1078.322510 817.299622,1077.238647 815.854004,1077.035034 
	C807.788818,1075.898071 799.649536,1075.238647 791.621399,1073.901489 
	C783.922913,1072.619019 776.574036,1070.093628 772.495300,1062.662964 
	C764.307434,1047.746338 775.467712,1033.398071 788.623108,1033.702881 
	C805.795654,1034.100708 822.831482,1034.762573 839.768860,1037.978394 
	C857.540283,1041.352539 865.857666,1058.545410 855.814087,1072.183228 
	C854.167542,1074.418945 852.022095,1076.287354 850.053589,1078.662720 
	C840.312439,1079.000000 830.624878,1079.000000 820.468628,1079.000000 
z"/>
<path fill="#DBDBDB" opacity="1.000000" stroke="none" 
	d="
M316.468658,1079.000000 
	C315.862701,1072.251099 320.001282,1067.858276 324.680634,1064.005249 
	C340.379822,1051.078003 358.608917,1046.850098 378.489990,1049.227051 
	C388.921539,1050.474243 393.862305,1056.597412 395.347168,1066.969360 
	C395.914032,1070.928833 398.984497,1074.529907 400.957031,1078.647217 
	C372.979095,1079.000000 344.958221,1079.000000 316.468658,1079.000000 
z"/>
<path fill="#DBDBDB" opacity="1.000000" stroke="none" 
	d="
M883.468628,1079.000000 
	C882.822632,1074.380249 882.135437,1069.710693 882.580627,1065.151733 
	C883.358398,1057.187622 886.473999,1050.398315 894.308228,1046.669312 
	C895.551208,1046.077637 896.378967,1044.574463 897.344666,1043.446411 
	C901.706604,1038.350952 908.935425,1038.983398 912.613220,1044.460571 
	C914.274963,1046.935181 916.706787,1048.935791 918.965698,1050.953979 
	C921.187439,1052.938965 923.556213,1054.784180 926.007019,1056.478760 
	C927.583496,1057.568848 929.334900,1058.699219 931.161682,1059.086914 
	C943.665833,1061.740356 946.229614,1067.785034 939.073853,1078.654541 
	C931.979065,1079.000000 924.958069,1079.000000 917.410950,1078.664429 
	C915.128784,1076.284546 913.372803,1074.240234 910.884644,1071.343506 
	C909.260986,1074.543701 908.130493,1076.771851 907.000000,1079.000000 
	C899.312439,1079.000000 891.624817,1079.000000 883.468628,1079.000000 
z"/>
<path fill="#DBDBDB" opacity="1.000000" stroke="none" 
	d="
M1031.468628,1079.000000 
	C1029.698730,1070.935669 1033.396484,1065.256836 1040.291748,1062.026489 
	C1048.061768,1058.386597 1056.164795,1055.405640 1064.268799,1052.552124 
	C1068.364624,1051.109985 1072.403931,1051.845215 1075.791626,1055.136719 
	C1076.891846,1056.205811 1078.812256,1056.376343 1080.132324,1057.284912 
	C1082.910645,1059.197510 1086.092041,1060.904175 1088.069580,1063.489746 
	C1089.921997,1065.911499 1091.636841,1067.062744 1094.578735,1066.951782 
	C1098.390381,1066.807983 1102.211914,1066.874268 1106.028442,1066.912231 
	C1114.198242,1066.993408 1117.599121,1069.992798 1118.968750,1078.613770 
	C1089.979126,1079.000000 1060.958130,1079.000000 1031.468628,1079.000000 
z"/>
<path fill="#DCDCDC" opacity="1.000000" stroke="none" 
	d="
M1314.000000,1001.531372 
	C1309.764404,1001.255432 1305.506348,1000.619263 1301.298584,999.741455 
	C1294.745483,998.374207 1291.226685,990.993225 1294.372559,984.795349 
	C1299.102661,975.476135 1304.032471,966.254517 1309.083740,957.105347 
	C1309.977295,955.486877 1311.876465,954.423767 1313.655640,953.052124 
	C1314.000000,969.020874 1314.000000,985.041809 1314.000000,1001.531372 
z"/>
<path fill="#FEFEFE" opacity="1.000000" stroke="none" 
	d="
M907.454102,1079.000000 
	C908.130493,1076.771851 909.260986,1074.543701 910.884644,1071.343506 
	C913.372803,1074.240234 915.128784,1076.284546 916.942383,1078.664429 
	C913.969421,1079.000000 910.938782,1079.000000 907.454102,1079.000000 
z"/>
<path fill="#585757" opacity="1.000000" stroke="none" 
	d="
M844.136963,725.578369 
	C843.425476,732.354553 842.580383,738.763916 841.422974,745.811523 
	C836.987854,757.014099 830.473999,765.556580 821.348145,772.537720 
	C816.224915,776.456909 812.463989,782.157043 808.089355,787.054810 
	C784.629211,821.959106 748.271057,836.955322 710.740234,850.160278 
	C703.850098,852.584595 696.788696,854.684631 690.202209,857.777344 
	C674.806335,865.006836 658.489746,866.384888 642.346497,863.473328 
	C634.524475,862.062561 627.953003,863.011475 620.698730,864.632446 
	C603.097351,868.565613 586.257385,864.733276 570.110291,857.799194 
	C563.643616,855.022156 557.794861,850.806091 551.174438,846.830200 
	C548.318115,843.588989 545.952087,840.762512 543.586060,837.936096 
	C532.963623,808.556274 525.686646,778.263489 518.949341,747.820618 
	C518.270081,744.751404 517.286255,741.749634 516.389771,738.489502 
	C515.507629,731.838318 514.325500,725.435059 513.945374,718.984497 
	C513.516479,711.707886 516.501648,705.744995 522.421082,701.259094 
	C523.597351,700.367737 525.014526,698.671204 524.943176,697.424744 
	C523.823608,677.865601 530.280212,659.549622 534.445618,640.940308 
	C538.989441,620.640625 545.776062,600.828552 549.988098,580.473450 
	C553.718811,562.444519 555.284485,543.965698 557.742126,525.676880 
	C558.229004,522.053467 558.379211,518.386108 558.765625,514.747559 
	C559.705017,505.903625 562.971741,497.627289 560.396179,488.020294 
	C558.381165,480.504059 560.098389,471.777466 561.094482,463.704285 
	C563.763062,442.076141 559.102356,421.285095 554.890808,400.372589 
	C551.905518,385.548798 546.993225,371.716614 539.114380,358.589539 
	C535.403381,352.406616 534.903381,344.097900 533.873474,336.624939 
	C533.562866,334.371185 535.815002,330.465546 537.886230,329.540802 
	C540.035706,328.581085 544.035767,329.489258 546.060364,331.072144 
	C548.935181,333.319794 551.057251,336.749115 552.945007,339.996704 
	C557.350952,347.576752 561.425354,355.349579 565.634033,363.044312 
	C566.056335,362.928436 566.478699,362.812561 566.901001,362.696686 
	C566.901001,350.530304 566.882446,338.363892 566.908936,326.197571 
	C566.921936,320.203827 567.062927,314.210297 567.064087,308.216675 
	C567.065186,302.396851 567.582825,296.488251 566.766541,290.776825 
	C565.334473,280.756165 565.560608,271.062622 569.241516,261.616089 
	C581.948975,270.624939 583.526245,284.608673 584.930298,298.262024 
	C586.308167,311.660431 586.479492,325.185883 587.071533,338.660370 
	C587.260254,342.955231 587.101074,347.265350 587.101074,352.833282 
	C590.976746,346.445435 594.353210,340.680664 597.936035,335.047180 
	C600.219788,331.456390 602.902222,328.120239 605.216187,324.547058 
	C606.150574,323.104218 607.074341,321.359070 607.158691,319.708344 
	C607.787476,307.405304 608.065002,295.083923 608.731934,282.783447 
	C609.262939,272.990692 609.751709,263.155487 611.168457,253.472122 
	C611.685242,249.939636 614.825806,246.791031 616.769409,243.467316 
	C619.606506,246.293518 623.776611,248.647141 624.983459,252.051300 
	C627.044434,257.864716 627.825623,264.311371 628.101074,270.538239 
	C628.569946,281.140747 628.230103,291.779022 629.152832,302.707275 
	C630.381592,299.203369 631.393494,295.604095 632.884094,292.215363 
	C636.020203,285.085724 639.420898,278.072784 642.683899,270.998535 
	C643.725342,268.740692 645.182373,266.526245 645.584412,264.145874 
	C648.212341,248.585007 656.247742,235.160675 662.335693,220.970001 
	C663.843262,217.455933 665.386414,213.951340 667.093994,210.532730 
	C667.553711,209.612381 668.677673,209.023804 669.496643,208.282913 
	C670.247559,209.245819 671.564880,210.154495 671.663147,211.179916 
	C672.873718,223.817017 673.272949,236.264145 668.643921,248.609390 
	C662.165710,265.885925 656.695984,283.537994 650.531006,300.935913 
	C648.147644,307.661835 644.881714,314.071411 642.362000,320.754822 
	C641.570740,322.853455 641.822266,325.372375 641.736511,327.704102 
	C641.573486,332.134583 642.239319,336.740295 641.244263,340.963013 
	C639.570190,348.067383 637.183167,355.053223 634.511719,361.859528 
	C631.675415,369.085602 631.475098,375.574615 636.451538,382.065918 
	C642.198730,389.562653 647.187073,397.651550 653.089172,405.015045 
	C656.511353,409.284546 658.639954,408.758484 662.348328,404.462677 
	C663.545959,403.075317 664.587158,401.497986 665.977295,400.340759 
	C673.676880,393.931061 675.076294,385.815155 673.887207,376.244080 
	C670.531738,349.237579 672.602234,322.458984 677.393494,295.692719 
	C681.485168,272.834412 687.931824,250.949005 699.755005,230.912323 
	C702.889648,225.600143 707.395874,221.097275 711.272339,216.222824 
	C711.726929,216.348740 712.181519,216.474640 712.636108,216.600555 
	C712.636108,222.390274 713.627502,228.392654 712.440125,233.927673 
	C709.516907,247.554550 705.130127,260.867004 702.193115,274.491547 
	C698.897766,289.778870 695.714600,305.179688 694.029602,320.699066 
	C692.436768,335.371399 692.829163,350.260986 692.418640,365.056976 
	C692.383057,366.340302 692.872620,367.638184 693.365784,370.230865 
	C698.141907,365.194458 702.114624,360.612427 706.521973,356.495636 
	C709.462097,353.749298 713.189636,351.861359 716.252441,349.226196 
	C718.919189,346.931763 721.664307,344.439178 723.447449,341.476044 
	C726.007385,337.222076 727.510376,332.347900 729.839966,327.936676 
	C739.306396,310.011414 741.871948,290.615326 741.647644,270.788452 
	C741.440552,252.476501 742.683716,234.363434 749.140198,217.174606 
	C752.501526,208.225525 757.576294,199.848434 762.535034,191.608917 
	C764.327087,188.631256 768.038940,186.809006 771.045776,184.317795 
	C774.457520,188.373230 774.700195,192.041183 773.159119,195.452576 
	C765.033936,213.439209 764.300232,232.979721 761.482605,252.002487 
	C759.834839,263.127747 760.588196,274.603210 760.173218,285.917908 
	C759.599121,301.571136 756.530151,316.626099 749.568115,330.803589 
	C744.389099,341.350128 739.482544,352.030487 734.577209,362.392151 
	C738.016541,364.060791 742.220398,366.100372 747.044495,368.440826 
	C759.301514,352.905853 772.793640,337.552002 776.967773,316.453796 
	C778.737244,307.510010 781.820129,298.804504 784.659119,290.105957 
	C785.615784,287.174744 787.296265,284.289673 789.291992,281.929932 
	C792.737976,277.855499 796.753235,278.533936 798.267944,283.663208 
	C799.260010,287.022491 799.230896,290.930603 798.696167,294.446411 
	C797.177246,304.432220 794.624695,314.281555 793.486755,324.299103 
	C792.165649,335.929047 787.965698,346.344238 781.463745,355.705902 
	C774.351257,365.946594 766.919983,376.100494 758.481262,385.233002 
	C753.711243,390.395142 754.030212,395.320190 754.435364,400.766632 
	C760.255920,401.788147 765.982910,402.088928 771.186829,403.895935 
	C776.893494,405.877472 778.495911,411.518921 779.343628,417.652130 
	C782.943420,412.569183 786.143799,408.006592 789.389282,403.476318 
	C797.242859,392.513641 805.947144,382.051605 812.729858,370.463776 
	C818.495361,360.613922 825.822754,352.505524 833.832947,344.736786 
	C835.146912,343.462433 836.441162,342.127319 837.925598,341.076019 
	C844.635071,336.324341 848.274292,329.643311 850.875427,322.017090 
	C855.447998,308.611298 856.644592,294.677368 857.744934,280.753021 
	C858.822876,267.111359 864.639038,255.137680 869.981201,242.952866 
	C870.370361,242.065231 871.087280,241.278748 871.783752,240.576035 
	C874.226624,238.111404 877.412476,235.487091 880.405762,238.121902 
	C882.441772,239.914032 883.906799,244.025070 883.421143,246.698380 
	C881.970032,254.685577 879.166443,262.416107 877.398560,270.359863 
	C875.799011,277.547089 874.867126,284.882904 873.640869,292.153229 
	C874.136536,292.348633 874.632263,292.544006 875.127930,292.739410 
	C879.368042,289.946655 883.439270,286.835175 887.905640,284.469482 
	C891.052368,282.802765 894.669861,281.602081 898.195618,281.177704 
	C902.901367,280.611359 904.480408,283.310425 901.730408,287.263123 
	C899.592896,290.335419 896.682861,292.970215 893.770508,295.382050 
	C888.137878,300.046539 881.300110,303.618134 876.734497,309.115021 
	C871.278320,315.684113 868.462952,323.944092 870.860840,333.018585 
	C871.445496,335.231049 871.966248,337.684387 871.618774,339.885254 
	C866.926270,369.606140 851.991211,392.681488 827.110840,409.756744 
	C819.862061,414.731598 814.784119,422.316650 812.277344,431.063416 
	C811.895203,432.396912 812.954468,434.144623 813.350647,435.699829 
	C814.607788,440.634766 816.836487,445.550568 816.931885,450.507629 
	C817.162170,462.475739 815.793274,474.481689 816.163940,486.438477 
	C816.829163,507.896118 817.778015,529.372192 819.560303,550.761292 
	C821.896118,578.792725 824.744690,606.797668 828.174500,634.715515 
	C830.140808,650.720947 833.717346,666.527283 836.528748,682.430420 
	C839.048889,696.685791 841.514038,710.950806 844.136963,725.578369 
z"/>
<path fill="#DBDBDB" opacity="1.000000" stroke="none" 
	d="
M308.322296,937.415039 
	C299.818329,936.607117 291.644745,936.090881 283.682709,934.509338 
	C280.996277,933.975708 277.630524,931.192932 276.686646,928.653381 
	C274.180695,921.911194 272.041229,914.827026 271.262756,907.713989 
	C270.643738,902.057922 274.616394,897.765625 279.833130,895.311035 
	C290.662354,890.215576 301.571228,885.288879 312.385498,880.162415 
	C313.977356,879.407837 315.268005,877.982544 316.635284,876.795349 
	C324.666565,869.821655 332.439392,862.521301 340.791687,855.957581 
	C345.504456,852.254028 351.120544,849.780823 357.570374,852.315674 
	C362.742676,854.348511 365.892090,857.917603 365.992157,863.520264 
	C366.051575,866.846436 367.437775,868.429749 370.551727,868.877808 
	C377.585358,869.890015 384.622772,870.879272 391.644196,871.970825 
	C393.751953,872.298523 395.886261,872.730957 397.880890,873.463013 
	C406.430237,876.600647 414.834106,880.168396 423.483948,882.987305 
	C429.735870,885.024841 434.965668,887.965637 439.036865,894.588745 
	C434.016083,894.837585 429.691650,895.051941 423.744873,895.346741 
	C428.626190,902.347412 432.592499,908.757202 437.291229,914.575623 
	C442.190033,920.641846 446.027100,926.814575 444.497620,934.965393 
	C442.980377,943.051147 438.111206,948.376221 430.405853,951.014893 
	C422.753540,953.635437 416.189728,950.847351 410.634949,945.872925 
	C406.696472,942.345886 403.304321,938.140381 400.050140,933.941833 
	C397.895294,931.161438 395.524139,930.026672 392.023102,929.971680 
	C369.665375,929.620667 347.453583,930.672913 325.486603,935.325684 
	C320.009888,936.485779 314.324738,936.661865 308.322296,937.415039 
z"/>
<path fill="#DBDBDB" opacity="1.000000" stroke="none" 
	d="
M1112.312134,967.767822 
	C1100.054565,957.821411 1100.510376,946.333313 1104.730713,937.726074 
	C1109.713989,927.562439 1123.377075,920.808594 1135.010132,922.718140 
	C1137.464722,923.121094 1140.094971,923.317993 1142.274536,924.373169 
	C1148.982178,927.620605 1155.550171,930.859680 1163.010620,932.460815 
	C1166.506958,933.211243 1169.299194,937.025696 1172.548462,939.249939 
	C1173.861450,940.148621 1175.743774,941.309570 1177.025024,940.988098 
	C1187.601685,938.333984 1197.465210,940.199951 1206.032959,946.469666 
	C1217.010254,954.502625 1228.527588,955.638550 1241.051636,951.523438 
	C1244.055542,950.536438 1247.114502,949.693542 1250.187012,948.942993 
	C1262.111816,946.030029 1272.787109,952.239807 1276.182495,964.000549 
	C1278.766724,972.951965 1274.859497,982.947510 1266.130127,987.311584 
	C1260.383179,990.184509 1253.971436,991.710510 1247.901978,993.960266 
	C1242.787842,995.856140 1237.477173,997.443298 1232.713867,1000.018799 
	C1222.548950,1005.514771 1211.856079,1007.546753 1200.432251,1006.843140 
	C1197.541382,1006.665039 1194.447998,1006.882751 1191.705444,1007.741455 
	C1184.329956,1010.050598 1177.988525,1008.521912 1172.092285,1003.786743 
	C1169.771484,1001.923096 1167.254150,1000.237976 1164.636230,998.822876 
	C1156.625977,994.492920 1149.385254,989.277039 1144.058472,981.753235 
	C1141.699951,978.421936 1138.926147,976.632019 1134.490967,976.816406 
	C1126.001587,977.169434 1119.510376,971.907654 1112.312134,967.767822 
z"/>
<path fill="#DBDBDB" opacity="1.000000" stroke="none" 
	d="
M1018.811035,866.829834 
	C1027.520508,857.429626 1033.203979,856.770081 1043.289062,863.559387 
	C1044.456421,864.345276 1046.013794,864.736572 1047.440918,864.922974 
	C1060.351562,866.609253 1070.116089,881.023071 1063.738159,892.148376 
	C1056.958252,903.974976 1064.526001,911.746338 1068.979126,919.645691 
	C1075.727295,931.616272 1076.436157,941.478088 1065.973999,950.336975 
	C1055.740723,959.002075 1044.676514,966.788269 1033.422852,974.108459 
	C1026.318115,978.729980 1018.335205,978.180176 1010.524536,974.282837 
	C1008.564026,973.304626 1005.349365,973.717285 1003.130737,974.575623 
	C994.124756,978.059570 985.327209,982.108704 975.366272,981.986023 
	C964.961853,981.857849 955.127686,976.335449 952.337646,968.126099 
	C948.916016,958.058472 950.744812,948.913879 958.335876,940.967102 
	C971.503967,927.181824 988.087280,919.305664 1005.714661,913.334900 
	C1010.541321,911.700073 1012.719727,909.758484 1011.139526,904.478882 
	C1010.051697,900.844177 1009.619934,896.996094 1009.085083,893.216370 
	C1007.617981,882.850342 1011.242737,874.291687 1018.811035,866.829834 
z"/>
<path fill="#DBDBDB" opacity="1.000000" stroke="none" 
	d="
M282.030029,1028.992432 
	C267.848999,1023.243530 264.452759,1016.354675 265.337738,1006.196289 
	C265.813568,1000.734497 267.532593,994.821167 270.467072,990.252563 
	C276.188019,981.345886 282.783569,972.917419 289.720612,964.899780 
	C296.116425,957.507568 305.147552,954.922180 314.664368,953.893677 
	C316.905640,953.651489 319.307770,953.149963 321.238831,952.062561 
	C336.427673,943.509766 351.530762,941.235718 366.735443,951.971558 
	C367.508270,952.517212 368.564423,952.789917 369.525360,952.921570 
	C385.732025,955.143066 391.815674,968.638855 388.276215,984.307129 
	C387.376984,988.287842 385.524017,992.204224 383.405396,995.726807 
	C378.946930,1003.139771 374.527191,1010.680969 369.108887,1017.374146 
	C365.586823,1021.725037 360.836334,1025.917603 355.744598,1027.983276 
	C345.937866,1031.961792 335.499817,1034.385132 325.319702,1037.440552 
	C324.684906,1037.631104 324.021515,1037.746094 323.363220,1037.835693 
	C315.964783,1038.841797 315.209930,1038.401123 312.977753,1031.460938 
	C302.453796,1035.633789 292.200897,1034.743896 282.030029,1028.992432 
z"/>
<path fill="#DBDBDB" opacity="1.000000" stroke="none" 
	d="
M536.622070,906.326782 
	C531.183411,916.470703 526.191162,926.425964 520.354126,935.858398 
	C517.150269,941.035767 511.234589,942.768921 505.329559,943.889587 
	C503.143555,944.304504 500.890350,945.159424 499.031952,946.371948 
	C489.901276,952.328857 480.739716,950.893616 473.841095,942.292114 
	C471.869171,939.833313 469.845581,937.389221 467.617432,935.167297 
	C457.281067,924.859375 458.854431,910.926147 471.095398,902.881592 
	C473.218475,901.486328 474.531830,898.858948 476.219208,896.800720 
	C475.845184,896.305969 475.471161,895.811218 475.097137,895.316528 
	C472.195770,895.125610 469.294434,894.934692 466.077972,894.723022 
	C469.029877,881.896179 474.676208,870.801453 483.207977,861.221252 
	C487.218109,856.718201 492.276398,855.653381 498.211884,856.892212 
	C501.136810,857.502686 504.442444,857.307678 507.380035,856.629272 
	C513.667175,855.177368 519.660339,854.251709 525.872314,857.281189 
	C533.569763,861.035339 537.776062,867.067383 537.866028,875.380859 
	C537.942200,882.413208 536.771729,889.451660 536.378601,896.499939 
	C536.204346,899.623962 536.586426,902.778992 536.622070,906.326782 
z"/>
<path fill="#DBDBDB" opacity="1.000000" stroke="none" 
	d="
M421.733582,791.967712 
	C428.878845,794.643127 435.673706,797.113464 442.232666,800.101624 
	C443.989075,800.901733 445.850342,803.104614 446.249969,804.966919 
	C447.963684,812.953125 453.984344,817.979187 458.476013,824.079163 
	C463.024628,830.256470 467.304047,836.481445 467.152222,844.814636 
	C466.819305,863.085999 450.870972,874.660278 433.654541,869.166504 
	C425.148376,866.452332 418.532928,861.796082 413.924347,854.082275 
	C413.258240,852.967346 410.726929,852.125854 409.333557,852.427490 
	C402.041565,854.005859 394.891968,856.252014 387.589996,857.771606 
	C379.107300,859.536865 372.139099,855.760864 369.305267,848.444885 
	C366.479248,841.148926 368.806580,834.534180 376.470459,829.763550 
	C380.128876,827.486267 382.055664,825.129639 382.440765,820.460938 
	C383.015320,813.496033 387.590881,808.344910 393.130859,804.272278 
	C401.583496,798.058594 409.846191,791.345825 421.733582,791.967712 
z"/>
<path fill="#DBDBDB" opacity="1.000000" stroke="none" 
	d="
M607.650574,1015.848511 
	C619.035461,1014.857910 629.938416,1013.437378 640.875671,1013.088623 
	C651.861694,1012.738342 659.852051,1020.339844 661.608337,1031.504639 
	C663.007019,1040.395996 656.560120,1050.624146 646.766479,1053.065796 
	C638.432800,1055.143433 629.758301,1055.997192 621.184998,1056.943115 
	C598.561584,1059.439087 576.005127,1058.041504 553.564636,1054.822876 
	C548.546265,1054.102905 543.430603,1052.540527 538.903625,1050.277710 
	C532.381287,1047.017822 528.668152,1041.400146 529.014771,1033.708252 
	C529.360657,1026.032349 533.683350,1021.084717 540.241821,1017.897644 
	C548.714600,1013.780273 557.841187,1014.993835 566.787231,1015.104736 
	C580.253906,1015.271606 593.718323,1015.618286 607.650574,1015.848511 
z"/>
<path fill="#DBDBDB" opacity="1.000000" stroke="none" 
	d="
M1040.945068,1038.620728 
	C1037.214966,1047.633423 1030.883179,1052.395996 1021.434326,1053.173462 
	C1019.725769,1053.313965 1017.730591,1054.547974 1016.556213,1055.882812 
	C1006.615845,1067.181030 995.114258,1068.050293 983.822998,1058.431030 
	C982.227478,1057.071899 979.725098,1056.234131 977.599365,1056.141235 
	C970.954407,1055.850708 964.288574,1056.069824 957.631287,1056.023804 
	C943.523682,1055.926270 933.500122,1048.374634 931.354675,1036.281250 
	C929.435059,1025.460938 938.048035,1010.606506 949.608032,1007.174744 
	C958.740784,1004.463562 968.382996,1003.224670 977.889954,1002.102783 
	C984.377625,1001.337158 990.011780,1004.322693 993.938721,1009.575195 
	C995.904358,1012.204224 997.440491,1012.726318 1000.489136,1011.304443 
	C1008.506775,1007.565125 1016.683716,1007.955200 1024.567871,1011.833740 
	C1028.546875,1013.791199 1032.769775,1015.704285 1036.011841,1018.608948 
	C1041.826294,1023.818237 1043.253418,1030.696167 1040.945068,1038.620728 
z"/>
<path fill="#DBDBDB" opacity="1.000000" stroke="none" 
	d="
M850.214905,916.948120 
	C841.095947,913.664062 836.401550,907.547485 835.861450,898.150208 
	C835.779907,896.731689 834.642334,895.153320 833.579041,894.047058 
	C825.827026,885.982178 826.650635,874.180542 836.178528,868.336121 
	C846.372620,862.082947 857.343689,856.851501 869.456909,862.900513 
	C875.651672,865.994019 881.294556,870.302673 886.883850,874.468628 
	C892.719604,878.818237 898.684387,883.170105 900.944397,890.784729 
	C901.314331,892.031128 903.224670,893.022949 904.626465,893.727600 
	C913.818054,898.348083 918.191406,907.307373 915.572327,916.415894 
	C913.118042,924.951416 903.016418,931.499329 893.465088,929.622009 
	C883.743896,927.711243 874.215210,924.764404 864.672363,922.026672 
	C859.894348,920.655945 855.272522,918.740906 850.214905,916.948120 
z"/>
<path fill="#DBDBDB" opacity="1.000000" stroke="none" 
	d="
M825.068604,983.042236 
	C820.320007,977.805481 816.728394,972.147827 818.636169,964.607117 
	C821.510315,953.246399 831.508850,947.348938 842.743347,950.827637 
	C849.243103,952.840210 855.527649,955.573853 861.848511,958.132507 
	C874.028625,963.062927 886.432556,967.547363 898.242126,973.254578 
	C908.977722,978.442749 914.677979,987.681885 913.922791,999.956543 
	C913.178223,1012.058533 901.418213,1019.708252 889.870850,1016.230042 
	C885.971069,1015.055359 881.819397,1014.345886 877.751770,1014.178223 
	C869.851013,1013.852600 864.358643,1010.174805 860.178223,1003.667786 
	C858.762756,1001.464355 856.553589,999.416504 854.232483,998.213135 
	C846.118408,994.006775 837.796936,990.200256 829.030151,985.863403 
	C827.360229,984.670776 826.214417,983.856506 825.068604,983.042236 
z"/>
<path fill="#DBDBDB" opacity="1.000000" stroke="none" 
	d="
M938.365234,840.661865 
	C923.560608,844.749268 908.841187,845.443970 893.985596,845.198792 
	C891.110779,845.151306 888.202454,846.562683 885.325012,847.357117 
	C876.199036,849.876648 868.154053,846.880615 864.843201,839.700500 
	C861.882874,833.280579 862.865173,828.069641 867.561890,822.685791 
	C868.939026,821.107239 870.590759,818.604065 870.259155,816.882446 
	C867.469604,802.398071 882.387146,794.503723 892.970154,796.203369 
	C898.352722,797.067871 903.838684,797.269775 909.254761,797.953674 
	C911.863037,798.282959 914.578369,798.655396 916.967102,799.665894 
	C924.439453,802.827148 931.786438,806.285950 939.168518,809.658997 
	C945.675964,812.632568 951.014832,816.495605 951.097595,824.660461 
	C951.179565,832.749756 947.495911,837.610413 938.365234,840.661865 
z"/>
<path fill="#DBDBDB" opacity="1.000000" stroke="none" 
	d="
M755.017090,914.790405 
	C764.761597,913.445557 774.126526,912.160156 783.511108,911.039368 
	C788.952637,910.389526 794.462280,910.250549 799.877197,909.449219 
	C811.296082,907.759460 821.391785,914.347229 824.406189,925.756714 
	C826.820923,934.896606 821.008667,945.606995 810.885742,949.090942 
	C798.777344,953.258179 786.585632,957.507202 774.094360,960.109741 
	C767.251587,961.535339 759.419861,960.755920 752.577026,958.932922 
	C745.562317,957.064026 741.675964,951.141418 741.859131,943.255859 
	C741.939758,939.781372 741.147400,936.263489 741.431091,932.821411 
	C742.138062,924.244690 746.884705,918.410767 755.017090,914.790405 
z"/>
<path fill="#DBDBDB" opacity="1.000000" stroke="none" 
	d="
M552.887146,974.331665 
	C557.399170,964.689636 565.953247,961.989502 574.904724,961.458618 
	C591.793884,960.456970 608.751099,959.823730 625.657410,960.163757 
	C637.151794,960.394958 645.484131,970.598633 644.970093,981.574158 
	C644.463379,992.393066 635.114441,1000.972046 623.531433,1001.028809 
	C607.203796,1001.108887 590.875305,1001.077087 574.547363,1001.030334 
	C567.817566,1001.011047 561.673157,999.184814 556.838501,994.257080 
	C551.342773,988.655518 551.009399,981.867859 552.887146,974.331665 
z"/>
<path fill="#DBDBDB" opacity="1.000000" stroke="none" 
	d="
M967.927734,842.770386 
	C973.033813,843.170471 977.739319,843.555359 982.408997,844.199768 
	C985.146240,844.577454 987.809998,845.794678 990.535278,845.900452 
	C1002.838135,846.377869 1009.566528,857.324707 1004.361816,868.473389 
	C1000.123291,877.552612 991.343018,881.993652 984.478210,888.394714 
	C979.815125,892.742737 974.715576,895.489014 967.938965,895.114685 
	C961.762329,894.773560 957.184082,892.435486 955.017700,886.744629 
	C953.553467,882.898193 951.284546,881.737366 947.474487,882.026855 
	C941.349487,882.492126 935.208435,882.864868 929.068420,882.987549 
	C919.494080,883.178894 912.378967,877.029907 911.982483,868.500183 
	C911.569031,859.606262 918.220581,853.453186 927.677856,851.787659 
	C941.064575,849.429993 954.244019,845.895691 967.927734,842.770386 
z"/>
<path fill="#DBDBDB" opacity="1.000000" stroke="none" 
	d="
M558.491333,915.186523 
	C576.835632,914.056091 594.751221,912.704407 612.692383,912.042664 
	C624.845520,911.594360 633.288513,919.755798 633.855286,931.350647 
	C634.353699,941.546814 625.259460,951.410156 614.047974,951.885010 
	C597.793945,952.573364 581.514526,952.831848 565.244995,952.872803 
	C560.998779,952.883484 556.636963,951.779785 552.524841,950.537170 
	C544.924194,948.240479 540.283020,942.574219 539.958130,936.035950 
	C539.533020,927.482178 543.305603,921.054138 550.971741,917.631287 
	C553.239929,916.618591 555.700867,916.037781 558.491333,915.186523 
z"/>
<path fill="#DBDBDB" opacity="1.000000" stroke="none" 
	d="
M515.080811,782.846741 
	C514.597900,783.775513 514.335388,784.399536 513.955017,784.940735 
	C508.184509,793.150452 491.524597,799.554443 481.721802,797.161133 
	C472.994324,795.030396 464.257568,792.889465 455.649872,790.332336 
	C448.957397,788.344238 444.307159,783.754639 443.195740,776.720398 
	C442.074829,769.626221 445.365967,764.049377 451.060333,760.018616 
	C460.840942,753.095276 470.598175,746.119385 480.647369,739.600586 
	C490.736725,733.055725 499.184753,736.120789 503.944031,746.980713 
	C507.110535,754.206238 510.955353,761.138428 514.590759,768.153137 
	C517.036499,772.872253 517.710083,777.596924 515.080811,782.846741 
z"/>
<path fill="#DBDBDB" opacity="1.000000" stroke="none" 
	d="
M824.688843,982.995728 
	C826.214417,983.856506 827.360229,984.670776 828.721008,985.687500 
	C829.353271,987.385864 829.527222,989.007446 830.225342,990.358093 
	C837.384155,1004.207336 827.961121,1020.100647 812.283936,1019.939514 
	C804.673706,1019.861328 797.076111,1018.614868 789.471313,1017.912598 
	C782.527344,1017.271423 775.560791,1016.815796 768.645508,1015.948792 
	C765.391479,1015.540833 762.066589,1014.747803 759.067078,1013.450867 
	C751.960999,1010.378418 747.671021,1003.441040 748.103149,996.551147 
	C748.598877,988.647888 753.209656,981.464355 761.034973,980.041565 
	C771.415222,978.154053 782.121155,977.069519 792.653748,977.283813 
	C803.344421,977.501282 814.297302,978.096558 824.688843,982.995728 
z"/>
<path fill="#DBDBDB" opacity="1.000000" stroke="none" 
	d="
M794.312744,859.306274 
	C791.033936,861.606873 788.085083,863.770935 784.978821,865.678772 
	C773.798645,872.545532 762.586792,879.361572 751.333313,886.107483 
	C749.211731,887.379211 746.929810,888.515564 744.576477,889.245056 
	C735.649292,892.012695 728.141052,886.878845 727.040649,877.604004 
	C726.714355,874.853577 726.108521,872.064026 725.138611,869.476929 
	C722.876831,863.443542 724.767761,855.810791 730.043274,852.040894 
	C732.316895,850.416138 734.964355,849.309692 737.458435,847.999084 
	C746.855225,843.060974 756.923950,839.068298 765.485962,832.961792 
	C775.456055,825.851013 788.619995,830.524597 795.788391,836.556946 
	C802.463257,842.174072 801.501831,851.807800 794.312744,859.306274 
z"/>
<path fill="#DBDBDB" opacity="1.000000" stroke="none" 
	d="
M1088.682617,1032.216064 
	C1083.914185,1029.825195 1079.403931,1027.701416 1074.927612,1025.508301 
	C1065.994629,1021.131653 1061.703979,1013.827515 1063.186401,1005.611816 
	C1064.585449,997.857788 1072.432495,990.778442 1081.368286,990.159851 
	C1095.433472,989.186218 1107.985474,993.221375 1118.473267,1002.934326 
	C1120.060059,1004.403992 1121.525879,1006.015381 1123.191284,1007.387085 
	C1132.348145,1014.929382 1133.812378,1028.565552 1126.331177,1037.128052 
	C1117.990601,1046.674194 1104.167847,1047.462036 1095.255859,1038.864136 
	C1093.100220,1036.784424 1091.053223,1034.592285 1088.682617,1032.216064 
z"/>
<path fill="#DBDBDB" opacity="1.000000" stroke="none" 
	d="
M808.281372,787.343201 
	C812.463989,782.157043 816.224915,776.456909 821.348145,772.537720 
	C830.473999,765.556580 836.987854,757.014099 841.334473,746.208496 
	C843.220337,745.951904 844.882629,745.909607 846.544312,745.926025 
	C853.673279,745.996277 857.378540,749.314575 859.047791,756.273987 
	C859.485535,758.098877 861.155823,760.290222 862.830322,761.040466 
	C869.718201,764.126465 874.249451,770.871826 872.784546,778.213562 
	C870.511841,789.603271 866.564941,799.805664 853.944275,804.148621 
	C847.555725,806.346924 842.158875,806.252075 836.429871,802.707947 
	C834.310364,801.396729 831.293274,800.628113 828.841675,800.920532 
	C818.656250,802.135254 812.001587,798.002747 808.281372,787.343201 
z"/>
<path fill="#DCDCDC" opacity="1.000000" stroke="none" 
	d="
M527.148682,822.047424 
	C525.046997,829.739502 521.353638,835.468506 513.598206,837.865540 
	C511.977417,838.366516 510.655945,839.962524 509.298706,841.168884 
	C500.810303,848.713501 489.074066,845.724121 484.734955,835.237305 
	C483.575867,832.435974 481.243927,829.716370 478.748901,827.950256 
	C472.378662,823.441040 469.470978,817.525452 471.473358,811.417542 
	C473.345886,805.705750 479.939819,801.709290 487.050720,802.015137 
	C488.210144,802.065002 489.424164,802.083679 490.508453,802.437195 
	C496.758118,804.474976 502.397339,805.761108 508.490997,800.684814 
	C512.725708,797.157104 518.447021,798.853943 522.835938,802.351624 
	C527.634827,806.176086 529.768250,811.203613 528.587219,817.372314 
	C528.307190,818.834778 527.717773,820.238037 527.148682,822.047424 
z"/>
<path fill="#DCDCDC" opacity="1.000000" stroke="none" 
	d="
M433.891296,990.828857 
	C428.829254,995.876831 424.479065,1001.341125 418.988983,1005.171570 
	C415.037781,1007.928284 409.637878,1009.484741 404.757629,1009.840393 
	C396.185760,1010.465027 390.573517,1003.130066 391.360229,994.436646 
	C392.230560,984.818665 398.502869,978.657043 404.613983,972.314636 
	C406.106445,970.765686 407.830994,969.441467 409.436066,967.999695 
	C417.192627,961.031799 426.347534,960.327026 432.796936,966.207703 
	C440.536743,973.264893 440.971130,981.284790 433.891296,990.828857 
z"/>
<path fill="#DCDCDC" opacity="1.000000" stroke="none" 
	d="
M850.442261,840.162109 
	C846.299622,851.235718 835.263184,855.197998 822.837891,850.313354 
	C820.683228,849.466248 818.593567,848.351562 816.647522,847.092346 
	C804.201538,839.039246 804.820679,827.246948 812.811401,817.045898 
	C819.953064,807.928772 836.010132,807.578186 843.123962,815.510315 
	C843.235046,815.634277 843.389832,815.737122 843.455811,815.881104 
	C846.949646,823.512146 850.708496,831.065796 850.442261,840.162109 
z"/>
<path fill="#DCDCDC" opacity="1.000000" stroke="none" 
	d="
M925.703125,932.892578 
	C934.668213,936.636475 938.939758,943.821045 941.434937,952.188416 
	C943.448486,958.940796 940.179688,966.693481 934.336487,970.466370 
	C928.222473,974.414124 919.746216,974.285034 913.901733,969.065186 
	C910.038391,965.614868 906.376038,961.327820 904.237000,956.673828 
	C897.939392,942.972412 906.914307,930.833191 921.934143,932.036255 
	C923.078491,932.127930 924.200623,932.496338 925.703125,932.892578 
z"/>
<path fill="#DBDBDB" opacity="1.000000" stroke="none" 
	d="
M601.974243,893.248413 
	C599.438782,893.995667 597.220947,894.865356 594.980713,894.927673 
	C588.153503,895.117920 581.266724,895.503235 574.502747,894.822327 
	C569.859985,894.354980 565.093933,892.813904 560.906372,890.710571 
	C555.826965,888.159424 553.810364,881.703308 555.391174,876.427246 
	C556.950134,871.224182 561.088196,867.924316 567.038879,868.001282 
	C576.186157,868.119385 585.346680,868.432007 594.464722,869.138306 
	C599.830933,869.554016 603.660828,872.815552 605.745728,877.843384 
	C608.166565,883.681824 606.031555,888.541199 601.974243,893.248413 
z"/>
<path fill="#DCDCDC" opacity="1.000000" stroke="none" 
	d="
M1077.980957,907.274109 
	C1079.852783,899.102661 1085.171753,893.856384 1090.973633,893.901001 
	C1095.547485,893.936157 1098.593140,896.016052 1099.917480,900.371460 
	C1101.268921,904.815979 1102.553223,909.286865 1103.673340,913.794373 
	C1105.100342,919.537415 1103.449219,924.258789 1099.450195,926.534485 
	C1095.042725,929.042603 1090.444702,928.122498 1086.029785,923.601318 
	C1081.697266,919.164612 1077.559570,914.558655 1077.980957,907.274109 
z"/>
<path fill="#DCDCDC" opacity="1.000000" stroke="none" 
	d="
M711.566162,934.770386 
	C706.831909,936.892639 702.379761,937.955811 697.723694,935.859314 
	C692.261047,933.399658 691.187195,928.575989 695.273010,924.243835 
	C696.738464,922.689941 698.544434,921.432373 700.292114,920.174561 
	C704.867615,916.881165 709.549194,913.733521 714.089661,910.393555 
	C718.585999,907.085999 724.532043,906.947937 727.808594,910.262695 
	C731.287598,913.782227 731.210083,919.279236 726.591736,923.563782 
	C722.127319,927.705505 716.840942,930.961182 711.566162,934.770386 
z"/>
<path fill="#DCDCDC" opacity="1.000000" stroke="none" 
	d="
M765.780029,894.997314 
	C764.451843,894.915833 763.518372,894.835022 762.584961,894.754272 
	C772.847412,887.521667 782.583923,879.578491 794.821106,876.408264 
	C803.329651,874.204041 811.610413,880.814697 811.996582,889.279236 
	C812.174866,893.186890 810.903870,895.100708 806.628784,895.051025 
	C793.145691,894.894165 779.659668,894.996155 765.780029,894.997314 
z"/>
<path fill="#DCDCDC" opacity="1.000000" stroke="none" 
	d="
M660.694763,926.276611 
	C656.151611,920.970093 655.761047,914.909119 659.470886,911.251221 
	C663.837646,906.945557 668.705994,907.311279 674.592163,911.866333 
	C676.295837,913.184692 678.729675,913.754089 680.923706,914.209351 
	C688.668823,915.816467 692.935364,920.049988 691.823120,925.315491 
	C690.716248,930.555969 684.095947,934.155823 677.187378,932.416565 
	C671.638733,931.019653 666.363647,928.535889 660.694763,926.276611 
z"/>
<path fill="#DCDCDC" opacity="1.000000" stroke="none" 
	d="
M671.632446,984.859253 
	C674.661133,981.326416 678.156433,980.612000 682.244385,981.250854 
	C687.133606,982.014832 692.186646,982.019470 696.945496,983.230408 
	C700.346863,984.095947 705.226624,985.723572 706.153320,988.229187 
	C707.607910,992.162109 704.324585,995.972961 700.471802,998.246155 
	C692.636841,1002.868652 684.503967,1003.615356 676.222107,999.625671 
	C670.052307,996.653381 668.451416,991.551941 671.632446,984.859253 
z"/>
<path fill="#DCDCDC" opacity="1.000000" stroke="none" 
	d="
M670.782654,939.758789 
	C677.522461,935.105652 682.720581,937.080383 684.000549,944.808411 
	C685.027100,951.006287 685.516541,957.309265 685.932922,963.586304 
	C686.208313,967.737366 683.991272,970.566528 679.981323,971.723572 
	C675.683105,972.963928 670.629333,971.101562 669.137268,966.802490 
	C666.021179,957.824463 664.935486,948.683960 670.782654,939.758789 
z"/>
<path fill="#DCDCDC" opacity="1.000000" stroke="none" 
	d="
M702.772339,1025.018799 
	C702.236816,1021.685059 701.062683,1018.417603 701.812744,1015.676758 
	C703.725525,1008.686523 708.372925,1003.396729 714.851440,1000.139954 
	C720.210266,997.446106 725.103821,1000.954407 723.779114,1006.783752 
	C722.431702,1012.713379 720.369263,1018.609985 717.705505,1024.075439 
	C714.927612,1029.775024 708.929443,1029.982788 702.772339,1025.018799 
z"/>
<path fill="#DCDCDC" opacity="1.000000" stroke="none" 
	d="
M715.501587,1071.927490 
	C712.850708,1070.565308 710.130432,1069.673828 708.486023,1067.825317 
	C704.835876,1063.721680 707.265625,1057.464844 712.596252,1056.109253 
	C716.592468,1055.092896 720.552856,1053.925659 724.500793,1052.731812 
	C728.204041,1051.612061 731.923462,1051.141479 734.507141,1054.625977 
	C737.218201,1058.282227 735.893372,1062.007202 733.299805,1065.137207 
	C728.813354,1070.551636 722.797302,1072.444336 715.501587,1071.927490 
z"/>
<path fill="#DCDCDC" opacity="1.000000" stroke="none" 
	d="
M720.789429,962.164429 
	C722.937134,957.577576 725.876526,954.613464 730.950867,955.320068 
	C736.130981,956.041382 738.589844,959.690002 739.536255,964.426147 
	C740.470459,969.101562 740.381592,973.707397 736.987488,977.589417 
	C732.009033,983.283325 723.852844,981.968018 721.680359,974.725769 
	C720.534729,970.906738 720.955017,966.618042 720.789429,962.164429 
z"/>
<path fill="#DCDCDC" opacity="1.000000" stroke="none" 
	d="
M750.843994,1029.710815 
	C757.626587,1035.489624 758.654053,1041.501587 754.341675,1048.341797 
	C750.865784,1053.855347 743.206482,1054.385254 739.035095,1049.400757 
	C735.650208,1045.356079 735.112854,1039.085693 737.752869,1034.438965 
	C740.465881,1029.663696 743.882446,1028.346191 750.843994,1029.710815 
z"/>
<path fill="#DBDBDB" opacity="1.000000" stroke="none" 
	d="
M543.178589,837.864136 
	C545.952087,840.762512 548.318115,843.588989 550.842407,846.707520 
	C550.352051,848.530518 549.331116,850.012329 549.121277,851.601318 
	C548.346130,857.470581 543.371521,860.153992 538.898560,856.341980 
	C535.076965,853.084961 531.842224,848.937927 529.071899,844.710144 
	C526.723206,841.125916 530.573792,836.165527 535.583923,836.195496 
	C537.982727,836.209839 540.375549,837.228455 543.178589,837.864136 
z"/>
<path fill="#DCDCDC" opacity="1.000000" stroke="none" 
	d="
M704.311584,1038.871216 
	C707.610291,1045.492920 705.406860,1053.132935 699.594238,1056.469116 
	C693.985718,1059.688232 687.255493,1056.000488 687.032593,1049.505737 
	C686.844360,1044.020874 689.400208,1039.849731 693.989380,1037.135620 
	C697.521973,1035.046387 701.021240,1035.767334 704.311584,1038.871216 
z"/>
<path fill="#DCDCDC" opacity="1.000000" stroke="none" 
	d="
M699.991455,949.072998 
	C707.432739,950.715759 712.090332,956.715576 710.367737,962.082153 
	C708.994812,966.359680 705.957458,968.803345 701.453674,968.668762 
	C696.738342,968.527832 691.420898,962.705383 691.163391,957.890808 
	C690.935120,953.623657 694.057068,950.361206 699.991455,949.072998 
z"/>
<path fill="#DCDCDC" opacity="1.000000" stroke="none" 
	d="
M991.951416,832.672607 
	C989.219421,838.407532 985.445190,839.458069 980.800354,836.140137 
	C978.111328,834.219238 975.047424,832.621887 972.899353,830.212830 
	C971.361206,828.487793 969.926758,825.292786 970.527893,823.422791 
	C971.137146,821.527588 974.154602,819.557922 976.378967,819.186157 
	C983.668091,817.967773 991.482910,824.823975 991.951416,832.672607 
z"/>
<path fill="#DCDCDC" opacity="1.000000" stroke="none" 
	d="
M890.417236,868.708557 
	C887.750244,866.739075 884.821472,865.348511 883.216370,863.038330 
	C879.931213,858.309998 882.999573,852.801880 888.712463,853.053223 
	C891.569580,853.178955 894.584167,854.214600 897.144226,855.565125 
	C901.127136,857.666077 902.157959,861.583374 900.340332,865.433655 
	C898.515259,869.299622 895.097961,870.925476 890.417236,868.708557 
z"/>
<path fill="#DCDCDC" opacity="1.000000" stroke="none" 
	d="
M702.663635,880.181213 
	C706.512634,881.388794 708.571228,883.735413 707.531616,887.376343 
	C706.476929,891.070190 704.744812,894.929382 700.060791,894.855530 
	C697.166443,894.809937 694.289917,893.635376 691.405396,892.967651 
	C692.468567,889.972351 692.898865,886.463928 694.785767,884.136414 
	C696.432495,882.105347 699.720459,881.404785 702.663635,880.181213 
z"/>
<path fill="#DCDCDC" opacity="1.000000" stroke="none" 
	d="
M672.492798,881.962036 
	C668.852539,881.249207 667.166687,878.894836 668.304382,876.145508 
	C669.051880,874.339111 671.722473,872.396667 673.682190,872.224243 
	C677.382019,871.898560 681.318176,872.342651 684.915833,873.336670 
	C688.195679,874.242859 688.585388,877.347900 685.554810,878.708069 
	C681.638367,880.465759 677.155945,880.962524 672.492798,881.962036 
z"/>
<path fill="#DDDDDD" opacity="1.000000" stroke="none" 
	d="
M630.583984,882.489868 
	C630.258179,878.306763 632.530945,875.661438 635.849304,875.575378 
	C639.225159,875.487854 643.145752,876.401062 645.893982,878.257996 
	C648.214478,879.825989 647.477722,883.079163 644.842468,885.020325 
	C640.430847,888.269836 634.746094,887.385193 630.583984,882.489868 
z"/>
<path fill="#DDDDDD" opacity="1.000000" stroke="none" 
	d="
M664.914795,883.222656 
	C664.958435,886.721802 663.273682,889.682251 660.442505,888.616943 
	C657.083069,887.352844 654.092102,884.434265 651.736389,881.577271 
	C651.001160,880.685608 652.683044,876.014404 653.537231,875.931030 
	C656.187622,875.672485 659.256897,876.266663 661.604858,877.551270 
	C663.187317,878.417114 663.824829,881.009949 664.914795,883.222656 
z"/>
<path fill="#DDDDDD" opacity="1.000000" stroke="none" 
	d="
M453.547913,888.818481 
	C449.632843,889.198059 447.361053,887.907593 446.963623,884.119019 
	C446.520752,879.896606 448.240540,876.491638 452.266602,875.792908 
	C454.372925,875.427429 457.831085,877.010315 459.076019,878.817383 
	C461.236206,881.952942 459.498718,885.174011 456.600616,887.449280 
	C455.840424,888.046082 454.830658,888.324951 453.547913,888.818481 
z"/>
<path fill="#DDDDDD" opacity="1.000000" stroke="none" 
	d="
M716.514771,867.695801 
	C713.257263,869.603943 709.927063,869.850037 708.763733,866.420166 
	C708.069824,864.374146 709.266663,861.026123 710.744263,859.157532 
	C711.600464,858.074768 715.357605,857.872803 716.658508,858.833191 
	C719.893921,861.221924 719.289368,864.508301 716.514771,867.695801 
z"/>
<path fill="#DDDDDD" opacity="1.000000" stroke="none" 
	d="
M631.858887,894.983032 
	C628.498230,894.993164 625.487793,895.201660 622.530823,894.895142 
	C621.106201,894.747437 618.720215,893.733032 618.641663,892.928284 
	C618.494568,891.422424 619.310486,888.930481 620.452332,888.393250 
	C622.304932,887.521973 625.248962,887.025574 626.820312,887.939148 
	C629.451416,889.469116 631.364685,892.233704 633.580017,894.478699 
	C633.130432,894.642273 632.680786,894.805908 631.858887,894.983032 
z"/>
<path fill="#DDDDDD" opacity="1.000000" stroke="none" 
	d="
M703.542969,910.781250 
	C701.374329,910.803711 699.404053,910.768677 697.642639,910.144287 
	C697.318604,910.029419 697.334229,906.882202 698.097168,906.279846 
	C699.144043,905.453552 701.784424,905.014893 702.427246,905.680298 
	C703.456604,906.745728 703.406799,908.853699 703.542969,910.781250 
z"/>
</svg>